<svg xmlns="http://www.w3.org/2000/svg" xmlns:xlink="http://www.w3.org/1999/xlink" version="1.1" style="shape-rendering:geometricPrecision; text-rendering:geometricPrecision; image-rendering:optimizeQuality; fill-rule:evenodd; clip-rule:evenodd" viewBox="22 130.43 429.09 196.29">
<g><path style="opacity:0.999" fill="#041779" d="M 209.5,131.5 C 210.5,131.5 211.5,131.5 212.5,131.5C 266.554,128.709 319.221,135.876 370.5,153C 396.456,161.543 418.623,175.709 437,195.5C 455.494,222.551 452.661,247.218 428.5,269.5C 428.5,266.167 428.5,262.833 428.5,259.5C 427.5,259.5 426.5,259.5 425.5,259.5C 420.653,260.26 415.986,261.594 411.5,263.5C 410.833,263.833 410.167,264.167 409.5,264.5C 408.883,264.389 408.383,264.056 408,263.5C 404.833,266 401.667,268.5 398.5,271C 397.207,271.49 395.873,271.657 394.5,271.5C 393.167,271.5 391.833,271.5 390.5,271.5C 387.892,271.4 385.558,272.067 383.5,273.5C 383.5,272.833 383.167,272.5 382.5,272.5C 378.317,271.189 373.984,271.189 369.5,272.5C 370.776,275.303 370.776,277.97 369.5,280.5C 368.817,276.98 366.817,274.48 363.5,273C 358.934,271.691 354.267,271.191 349.5,271.5C 344.65,271.905 341.317,274.239 339.5,278.5C 337.213,273.104 333.046,270.771 327,271.5C 324.967,271.506 323.134,271.839 321.5,272.5C 314.953,274.556 311.619,279.056 311.5,286C 311.697,293.596 315.364,298.429 322.5,300.5C 329.041,302.665 334.707,301.331 339.5,296.5C 342.791,301.284 347.125,302.617 352.5,300.5C 358.713,300.306 365.046,300.306 371.5,300.5C 371.833,300.5 372.167,300.5 372.5,300.5C 373.5,300.5 374.5,300.5 375.5,300.5C 357.506,307.883 338.84,313.383 319.5,317C 252.507,329.295 186.174,326.628 120.5,309C 110.049,306.022 100.049,302.188 90.5,297.5C 98.1955,297.831 105.862,297.497 113.5,296.5C 111.488,291.016 110.988,285.35 112,279.5C 114.028,269.192 115.862,258.859 117.5,248.5C 118.222,248.918 118.722,249.584 119,250.5C 121.296,262.979 123.463,275.479 125.5,288C 125.64,291.385 124.64,294.385 122.5,297C 123.448,297.483 124.448,297.649 125.5,297.5C 144.836,297.667 164.17,297.5 183.5,297C 182.748,296.329 182.414,295.496 182.5,294.5C 187.953,253.021 197.953,212.688 212.5,173.5C 212.058,172.261 211.391,171.261 210.5,170.5C 210.859,168.629 211.859,167.129 213.5,166C 197.837,165.5 182.17,165.333 166.5,165.5C 159.259,166.928 155.926,171.428 156.5,179C 158.378,194.301 162.878,208.801 170,222.5C 175.4,235.075 177.066,248.075 175,261.5C 174.424,265.663 172.59,268.996 169.5,271.5C 167.871,270.375 166.371,269.041 165,267.5C 161.744,260.734 159.078,253.734 157,246.5C 151.618,225.591 147.784,204.424 145.5,183C 144.784,176.814 146.118,171.147 149.5,166C 131.503,165.5 113.503,165.333 95.5,165.5C 94.448,165.351 93.448,165.517 92.5,166C 95.2931,169.081 97.4597,172.581 99,176.5C 109.846,203.004 112.512,230.337 107,258.5C 106.058,261.993 104.725,265.326 103,268.5C 101.89,270.037 100.39,270.703 98.5,270.5C 95.6109,267.744 93.4442,264.411 92,260.5C 82.6697,232.186 77.3364,203.186 76,173.5C 76.6395,170.888 77.8062,168.554 79.5,166.5C 78.675,165.614 77.675,165.281 76.5,165.5C 87.8088,159.345 99.4755,154.012 111.5,149.5C 115.084,149.025 118.417,148.025 121.5,146.5C 150.546,139.104 179.88,134.104 209.5,131.5 Z"/></g>
<g><path style="opacity:0.028" fill="#e7e8f2" d="M 209.5,131.5 C 179.88,134.104 150.546,139.104 121.5,146.5C 149.908,137.056 179.242,132.056 209.5,131.5 Z"/></g>
<g><path style="opacity:0.041" fill="#f0f1f7" d="M 121.5,146.5 C 118.417,148.025 115.084,149.025 111.5,149.5C 114.288,147.024 117.622,146.024 121.5,146.5 Z"/></g>
<g><path style="opacity:0.051" fill="#efeff4" d="M 212.5,131.5 C 266.373,127.651 319.04,134.151 370.5,151C 395.971,159.646 418.137,173.48 437,192.5C 452.567,210.77 455.233,230.77 445,252.5C 440.786,257.772 436.952,263.272 433.5,269C 434.416,269.374 435.25,269.874 436,270.5C 439.301,269.291 442.301,269.958 445,272.5C 446.674,281.777 447.84,291.11 448.5,300.5C 448.291,301.086 447.957,301.586 447.5,302C 434.258,302.176 421.092,302.676 408,303.5C 405.931,302.736 403.764,302.236 401.5,302C 399.369,299.552 397.369,297.052 395.5,294.5C 391.42,296.417 387.753,298.917 384.5,302C 381.833,302.333 379.167,302.667 376.5,303C 316.188,324.158 254.188,331.158 190.5,324C 155.137,320.321 120.804,312.321 87.5,300C 75.1667,299.667 62.8333,299.333 50.5,299C 49.6882,296.418 50.5215,294.251 53,292.5C 53.6936,287.881 53.1936,283.381 51.5,279C 44.645,272.81 38.4783,265.977 33,258.5C 19.4913,238.977 19.158,219.311 32,199.5C 32.1667,198.167 32.3333,196.833 32.5,195.5C 30.0494,184.646 26.5494,174.312 22,164.5C 38.4702,163.172 54.9702,163.172 71.5,164.5C 79.6374,161.263 87.6374,157.763 95.5,154C 100.702,151.988 106.035,150.488 111.5,149.5C 99.4755,154.012 87.8088,159.345 76.5,165.5C 59.5,165.5 42.5,165.5 25.5,165.5C 24.448,165.351 23.448,165.517 22.5,166C 25.5314,168.559 27.6981,171.726 29,175.5C 31.7907,182.665 33.9574,189.999 35.5,197.5C 20.8828,218.174 21.0495,238.841 36,259.5C 41.0403,266.041 46.8736,271.708 53.5,276.5C 56.5005,283.57 56.1671,290.403 52.5,297C 53.448,297.483 54.448,297.649 55.5,297.5C 67.1667,297.5 78.8333,297.5 90.5,297.5C 100.049,302.188 110.049,306.022 120.5,309C 186.174,326.628 252.507,329.295 319.5,317C 338.84,313.383 357.506,307.883 375.5,300.5C 378.85,300.665 382.183,300.498 385.5,300C 384.748,299.329 384.414,298.496 384.5,297.5C 389.162,295.503 393.829,293.503 398.5,291.5C 399.714,300.098 404.38,303.098 412.5,300.5C 413.167,300.5 413.833,300.5 414.5,300.5C 415.167,300.5 415.833,300.5 416.5,300.5C 420.884,300.826 425.217,300.492 429.5,299.5C 428.17,293.137 428.17,286.803 429.5,280.5C 430.818,283.258 431.485,286.424 431.5,290C 431.481,293.418 431.147,296.751 430.5,300C 431.448,300.483 432.448,300.649 433.5,300.5C 437.846,300.666 442.179,300.499 446.5,300C 445.684,292.579 445.184,285.079 445,277.5C 444.602,274.768 443.102,272.935 440.5,272C 436.091,270.738 432.257,271.572 429,274.5C 428.506,272.866 428.34,271.199 428.5,269.5C 452.661,247.218 455.494,222.551 437,195.5C 418.623,175.709 396.456,161.543 370.5,153C 319.221,135.876 266.554,128.709 212.5,131.5 Z"/></g>
<g><path style="opacity:1" fill="#e38a52" d="M 274.5,301.5 C 273.167,301.5 271.833,301.5 270.5,301.5C 270.045,304.203 269.378,306.87 268.5,309.5C 269.662,311.538 271.328,312.872 273.5,313.5C 269.973,313.737 267.306,312.403 265.5,309.5C 266.208,306.542 267.208,303.709 268.5,301C 270.712,300.211 272.712,300.378 274.5,301.5 Z"/></g>
<g><path style="opacity:1" fill="#ea8c4f" d="M 282.5,297.5 C 284.355,297.272 285.188,297.939 285,299.5C 283.736,301.607 281.903,302.607 279.5,302.5C 280.925,301.078 281.925,299.411 282.5,297.5 Z"/></g>
<g><path style="opacity:1" fill="#238453" d="M 305.5,290.5 C 302.67,292.362 301.837,295.029 303,298.5C 304.789,300.229 306.956,300.896 309.5,300.5C 302.318,302.826 299.151,300.16 300,292.5C 301.444,290.845 303.278,290.178 305.5,290.5 Z"/></g>
<g><path style="opacity:1" fill="#7ad457" d="M 305.5,290.5 C 310.813,290.644 312.979,293.31 312,298.5C 311.292,299.381 310.458,300.047 309.5,300.5C 306.956,300.896 304.789,300.229 303,298.5C 301.837,295.029 302.67,292.362 305.5,290.5 Z"/></g>
<g><path style="opacity:1" fill="#1b8451" d="M 355.5,274.5 C 358.68,274.176 359.847,275.51 359,278.5C 353.669,280.05 349.003,282.717 345,286.5C 340.016,295.545 342.516,300.211 352.5,300.5C 347.125,302.617 342.791,301.284 339.5,296.5C 340.72,294.716 340.72,293.05 339.5,291.5C 340.477,288.011 342.477,285.177 345.5,283C 344.944,282.617 344.611,282.117 344.5,281.5C 345.5,281.5 346.5,281.5 347.5,281.5C 350.112,280.629 352.779,279.963 355.5,279.5C 355.5,277.833 355.5,276.167 355.5,274.5 Z"/></g>
<g><path style="opacity:1" fill="#f6f9f5" d="M 414.5,281.5 C 414.5,287.167 414.5,292.833 414.5,298.5C 413.883,298.389 413.383,298.056 413,297.5C 412.501,292.511 412.334,287.511 412.5,282.5C 413.167,282.167 413.833,281.833 414.5,281.5 Z"/></g>
<g><path style="opacity:1" fill="#0a1f74" d="M 344.5,281.5 C 344.611,282.117 344.944,282.617 345.5,283C 342.477,285.177 340.477,288.011 339.5,291.5C 333.652,294.887 328.319,293.72 323.5,288C 328.167,287.667 332.833,287.333 337.5,287C 338.381,286.292 339.047,285.458 339.5,284.5C 340.404,283.791 340.737,282.791 340.5,281.5C 341.833,281.5 343.167,281.5 344.5,281.5 Z"/></g>
<g><path style="opacity:1" fill="#e88c50" d="M 294.5,262.5 C 288.506,261.603 283.839,263.603 280.5,268.5C 284.043,270.365 286.876,273.032 289,276.5C 289.667,281.167 289.667,285.833 289,290.5C 288.165,293.269 286.665,293.935 284.5,292.5C 285.268,291.737 285.768,290.737 286,289.5C 286.667,285.167 286.667,280.833 286,276.5C 284.52,273.183 282.02,271.183 278.5,270.5C 277.596,269.791 277.263,268.791 277.5,267.5C 282.28,262.347 287.947,260.68 294.5,262.5 Z"/></g>
<g><path style="opacity:1" fill="#f0914f" d="M 204.5,265.5 C 210.045,263.71 212.045,265.71 210.5,271.5C 202.597,272.917 196.43,276.917 192,283.5C 189.051,293.982 192.885,298.649 203.5,297.5C 189.265,299.76 185.098,294.093 191,280.5C 195.66,275.253 201.493,272.253 208.5,271.5C 209.401,267.759 208.068,265.759 204.5,265.5 Z"/></g>
<g><path style="opacity:0.997" fill="#0a1a7a" d="M 397.5,275.5 C 398.488,280.64 398.821,285.974 398.5,291.5C 393.829,293.503 389.162,295.503 384.5,297.5C 384.334,292.156 384.501,286.823 385,281.5C 388.039,281.971 391.206,281.971 394.5,281.5C 395.513,279.473 396.513,277.473 397.5,275.5 Z"/></g>
<g><path style="opacity:1" fill="#14864f" d="M 321.5,272.5 C 311.96,282.271 312.293,291.604 322.5,300.5C 315.364,298.429 311.697,293.596 311.5,286C 311.619,279.056 314.953,274.556 321.5,272.5 Z"/></g>
<g><path style="opacity:1" fill="#0e1c7a" d="M 412.5,274.5 C 414.344,276.279 415.01,278.612 414.5,281.5C 413.833,281.833 413.167,282.167 412.5,282.5C 412.5,279.833 412.5,277.167 412.5,274.5 Z"/></g>
<g><path style="opacity:1" fill="#228d53" d="M 409.5,264.5 C 406.358,267.469 403.025,270.302 399.5,273C 400,273.5 400.5,274 401,274.5C 401.333,281.167 401.667,287.833 402,294.5C 403.493,299.895 406.993,301.895 412.5,300.5C 404.38,303.098 399.714,300.098 398.5,291.5C 398.821,285.974 398.488,280.64 397.5,275.5C 397.5,274.5 397.5,273.5 397.5,272.5C 396.209,272.737 395.209,272.404 394.5,271.5C 395.873,271.657 397.207,271.49 398.5,271C 401.667,268.5 404.833,266 408,263.5C 408.383,264.056 408.883,264.389 409.5,264.5 Z"/></g>
<g><path style="opacity:1" fill="#1f8952" d="M 390.5,271.5 C 388.563,272.931 386.73,274.598 385,276.5C 384.487,275.473 383.987,274.473 383.5,273.5C 385.558,272.067 387.892,271.4 390.5,271.5 Z"/></g>
<g><path style="opacity:1" fill="#248255" d="M 349.5,271.5 C 345.438,273.47 343.771,276.804 344.5,281.5C 343.167,281.5 341.833,281.5 340.5,281.5C 340.737,282.791 340.404,283.791 339.5,284.5C 339.5,282.5 339.5,280.5 339.5,278.5C 341.317,274.239 344.65,271.905 349.5,271.5 Z"/></g>
<g><path style="opacity:1" fill="#584869" d="M 225.5,264.5 C 226.833,274.5 226.833,284.5 225.5,294.5C 224.509,287.687 224.175,280.687 224.5,273.5C 225.477,270.713 225.81,267.713 225.5,264.5 Z"/></g>
<g><path style="opacity:0.997" fill="#79d257" d="M 390.5,271.5 C 391.833,271.5 393.167,271.5 394.5,271.5C 395.209,272.404 396.209,272.737 397.5,272.5C 397.5,273.5 397.5,274.5 397.5,275.5C 396.513,277.473 395.513,279.473 394.5,281.5C 391.206,281.971 388.039,281.971 385,281.5C 384.501,286.823 384.334,292.156 384.5,297.5C 384.414,298.496 384.748,299.329 385.5,300C 382.183,300.498 378.85,300.665 375.5,300.5C 374.5,300.5 373.5,300.5 372.5,300.5C 373.796,291.303 373.796,282.136 372.5,273C 375.817,272.502 379.15,272.335 382.5,272.5C 383.167,272.5 383.5,272.833 383.5,273.5C 383.987,274.473 384.487,275.473 385,276.5C 386.73,274.598 388.563,272.931 390.5,271.5 Z"/></g>
<g><path style="opacity:1" fill="#248a52" d="M 382.5,272.5 C 379.15,272.335 375.817,272.502 372.5,273C 373.796,282.136 373.796,291.303 372.5,300.5C 372.167,300.5 371.833,300.5 371.5,300.5C 371.013,299.527 370.513,298.527 370,297.5C 369.501,291.843 369.334,286.176 369.5,280.5C 370.776,277.97 370.776,275.303 369.5,272.5C 373.984,271.189 378.317,271.189 382.5,272.5 Z"/></g>
<g><path style="opacity:1" fill="#78d357" d="M 349.5,271.5 C 354.267,271.191 358.934,271.691 363.5,273C 366.817,274.48 368.817,276.98 369.5,280.5C 369.334,286.176 369.501,291.843 370,297.5C 370.513,298.527 371.013,299.527 371.5,300.5C 365.046,300.306 358.713,300.306 352.5,300.5C 342.516,300.211 340.016,295.545 345,286.5C 349.003,282.717 353.669,280.05 359,278.5C 359.847,275.51 358.68,274.176 355.5,274.5C 351.626,275.369 348.959,277.703 347.5,281.5C 346.5,281.5 345.5,281.5 344.5,281.5C 343.771,276.804 345.438,273.47 349.5,271.5 Z"/></g>
<g><path style="opacity:1" fill="#051a77" d="M 355.5,283.5 C 356.08,287.649 355.414,291.316 353.5,294.5C 351.763,290.3 352.43,286.634 355.5,283.5 Z"/></g>
<g><path style="opacity:1" fill="#1b8052" d="M 353.5,294.5 C 355.414,291.316 356.08,287.649 355.5,283.5C 356.568,282.566 357.901,282.232 359.5,282.5C 359.665,286.182 359.499,289.848 359,293.5C 357.38,295.632 355.546,295.965 353.5,294.5 Z"/></g>
<g><path style="opacity:1" fill="#0a1e75" d="M 355.5,274.5 C 355.5,276.167 355.5,277.833 355.5,279.5C 352.779,279.963 350.112,280.629 347.5,281.5C 348.959,277.703 351.626,275.369 355.5,274.5 Z"/></g>
<g><path style="opacity:1" fill="#77d157" d="M 339.5,278.5 C 339.5,280.5 339.5,282.5 339.5,284.5C 339.047,285.458 338.381,286.292 337.5,287C 332.833,287.333 328.167,287.667 323.5,288C 328.319,293.72 333.652,294.887 339.5,291.5C 340.72,293.05 340.72,294.716 339.5,296.5C 334.707,301.331 329.041,302.665 322.5,300.5C 312.293,291.604 311.96,282.271 321.5,272.5C 323.134,271.839 324.967,271.506 327,271.5C 333.046,270.771 337.213,273.104 339.5,278.5 Z"/></g>
<g><path style="opacity:1" fill="#12834e" d="M 324.5,276.5 C 329.697,276.695 332.03,279.362 331.5,284.5C 330.5,284.5 329.5,284.5 328.5,284.5C 329.226,280.693 327.893,278.026 324.5,276.5 Z"/></g>
<g><path style="opacity:1" fill="#081c76" d="M 324.5,276.5 C 327.893,278.026 329.226,280.693 328.5,284.5C 321.556,287.052 318.722,284.719 320,277.5C 321.356,276.62 322.856,276.286 324.5,276.5 Z"/></g>
<g><path style="opacity:1" fill="#f48f4c" d="M 258.5,262.5 C 259.167,262.5 259.833,262.5 260.5,262.5C 264.686,274.264 269.02,285.931 273.5,297.5C 271.61,297.703 270.11,297.037 269,295.5C 266.135,287.239 263.469,278.906 261,270.5C 260.623,269.058 259.79,268.058 258.5,267.5C 259.833,265.833 259.833,264.167 258.5,262.5 Z"/></g>
<g><path style="opacity:1" fill="#f08d4e" d="M 25.5,165.5 C 29.9573,170.745 33.124,176.745 35,183.5C 44.5567,215.727 52.2233,248.393 58,281.5C 59.1655,287.247 58.3322,292.581 55.5,297.5C 54.448,297.649 53.448,297.483 52.5,297C 56.1671,290.403 56.5005,283.57 53.5,276.5C 49.7363,249.546 43.7363,223.212 35.5,197.5C 33.9574,189.999 31.7907,182.665 29,175.5C 27.6981,171.726 25.5314,168.559 22.5,166C 23.448,165.517 24.448,165.351 25.5,165.5 Z"/></g>
<g><path style="opacity:1" fill="#298d58" d="M 425.5,259.5 C 422.375,261.225 419.042,262.725 415.5,264C 416,264.5 416.5,265 417,265.5C 417.811,277.243 417.644,288.909 416.5,300.5C 415.833,300.5 415.167,300.5 414.5,300.5C 414.5,299.833 414.5,299.167 414.5,298.5C 414.5,292.833 414.5,287.167 414.5,281.5C 415.01,278.612 414.344,276.279 412.5,274.5C 413.263,273.732 414.263,273.232 415.5,273C 414.263,272.768 413.263,272.268 412.5,271.5C 411.527,269.052 411.194,266.385 411.5,263.5C 415.986,261.594 420.653,260.26 425.5,259.5 Z"/></g>
<g><path style="opacity:1" fill="#011776" d="M 412.5,271.5 C 412.337,269.143 412.503,266.81 413,264.5C 415.145,267.184 414.978,269.517 412.5,271.5 Z"/></g>
<g><path style="opacity:1" fill="#e78c52" d="M 256.5,262.5 C 253.813,262.336 251.146,262.503 248.5,263C 246.667,264.833 244.833,266.667 243,268.5C 242.517,267.552 242.351,266.552 242.5,265.5C 246.618,261.604 251.285,260.604 256.5,262.5 Z"/></g>
<g><path style="opacity:1" fill="#f9944d" d="M 227.5,262.5 C 227.783,263.289 228.283,263.956 229,264.5C 229.667,274.5 229.667,284.5 229,294.5C 228.487,295.527 227.987,296.527 227.5,297.5C 227.167,297.5 226.833,297.5 226.5,297.5C 225.89,296.609 225.557,295.609 225.5,294.5C 226.833,284.5 226.833,274.5 225.5,264.5C 224.34,262.797 225.007,262.131 227.5,262.5 Z"/></g>
<g><path style="opacity:1" fill="#f6944f" d="M 199.5,262.5 C 194.028,264.522 192.028,268.522 193.5,274.5C 192.5,274.5 191.5,274.5 190.5,274.5C 188.988,267.021 191.988,263.021 199.5,262.5 Z"/></g>
<g><path style="opacity:1" fill="#7bd558" d="M 411.5,263.5 C 411.194,266.385 411.527,269.052 412.5,271.5C 413.263,272.268 414.263,272.768 415.5,273C 414.263,273.232 413.263,273.732 412.5,274.5C 412.5,277.167 412.5,279.833 412.5,282.5C 412.334,287.511 412.501,292.511 413,297.5C 413.383,298.056 413.883,298.389 414.5,298.5C 414.5,299.167 414.5,299.833 414.5,300.5C 413.833,300.5 413.167,300.5 412.5,300.5C 406.993,301.895 403.493,299.895 402,294.5C 401.667,287.833 401.333,281.167 401,274.5C 400.5,274 400,273.5 399.5,273C 403.025,270.302 406.358,267.469 409.5,264.5C 410.167,264.167 410.833,263.833 411.5,263.5 Z"/></g>
<g><path style="opacity:1" fill="#fbd959" d="M 260.5,262.5 C 266.167,262.5 271.833,262.5 277.5,262.5C 277.5,264.167 277.5,265.833 277.5,267.5C 277.263,268.791 277.596,269.791 278.5,270.5C 279.895,278.015 281.895,285.348 284.5,292.5C 286.665,293.935 288.165,293.269 289,290.5C 289.667,285.833 289.667,281.167 289,276.5C 286.876,273.032 284.043,270.365 280.5,268.5C 283.839,263.603 288.506,261.603 294.5,262.5C 295.458,262.953 296.292,263.619 297,264.5C 297.667,267.167 297.667,269.833 297,272.5C 294.066,282.637 290.732,292.637 287,302.5C 284.967,309.38 280.467,313.046 273.5,313.5C 271.328,312.872 269.662,311.538 268.5,309.5C 269.378,306.87 270.045,304.203 270.5,301.5C 271.833,301.5 273.167,301.5 274.5,301.5C 276.042,302.301 277.708,302.634 279.5,302.5C 281.903,302.607 283.736,301.607 285,299.5C 285.188,297.939 284.355,297.272 282.5,297.5C 279.5,297.5 276.5,297.5 273.5,297.5C 269.02,285.931 264.686,274.264 260.5,262.5 Z"/></g>
<g><path style="opacity:1" fill="#161a76" d="M 278.5,270.5 C 282.02,271.183 284.52,273.183 286,276.5C 286.667,280.833 286.667,285.167 286,289.5C 285.768,290.737 285.268,291.737 284.5,292.5C 281.895,285.348 279.895,278.015 278.5,270.5 Z"/></g>
<g><path style="opacity:1" fill="#fcda58" d="M 227.5,262.5 C 232.179,262.334 236.845,262.501 241.5,263C 242.252,263.671 242.586,264.504 242.5,265.5C 242.351,266.552 242.517,267.552 243,268.5C 244.833,266.667 246.667,264.833 248.5,263C 251.146,262.503 253.813,262.336 256.5,262.5C 257.167,262.5 257.833,262.5 258.5,262.5C 259.833,264.167 259.833,265.833 258.5,267.5C 257.331,270.511 255.664,273.178 253.5,275.5C 252.5,274.167 251.5,274.167 250.5,275.5C 249.126,274.289 247.626,273.289 246,272.5C 244.739,272.759 243.739,273.426 243,274.5C 242.269,282.202 242.436,289.869 243.5,297.5C 238.167,297.5 232.833,297.5 227.5,297.5C 227.987,296.527 228.487,295.527 229,294.5C 229.667,284.5 229.667,274.5 229,264.5C 228.283,263.956 227.783,263.289 227.5,262.5 Z"/></g>
<g><path style="opacity:1" fill="#fad859" d="M 224.5,273.5 C 224.175,280.687 224.509,287.687 225.5,294.5C 225.557,295.609 225.89,296.609 226.5,297.5C 220.276,298.061 214.276,297.395 208.5,295.5C 206.925,296.456 205.258,297.123 203.5,297.5C 192.885,298.649 189.051,293.982 192,283.5C 196.43,276.917 202.597,272.917 210.5,271.5C 212.045,265.71 210.045,263.71 204.5,265.5C 201.334,267.834 198.667,270.667 196.5,274C 195.552,274.483 194.552,274.649 193.5,274.5C 192.028,268.522 194.028,264.522 199.5,262.5C 207.23,260.321 214.397,261.654 221,266.5C 222.705,268.577 223.872,270.91 224.5,273.5 Z"/></g>
<g><path style="opacity:1" fill="#ef8a4e" d="M 208.5,275.5 C 209.5,275.5 210.5,275.5 211.5,275.5C 211.666,280.179 211.499,284.845 211,289.5C 209.89,291.037 208.39,291.703 206.5,291.5C 206.783,290.711 207.283,290.044 208,289.5C 208.499,284.845 208.666,280.179 208.5,275.5 Z"/></g>
<g><path style="opacity:1" fill="#0d1876" d="M 208.5,275.5 C 208.666,280.179 208.499,284.845 208,289.5C 207.283,290.044 206.783,290.711 206.5,291.5C 205.542,291.047 204.708,290.381 204,289.5C 203.333,286.167 203.333,282.833 204,279.5C 205.049,277.616 206.549,276.282 208.5,275.5 Z"/></g>
<g><path style="opacity:0.998" fill="#7bd657" d="M 425.5,259.5 C 426.5,259.5 427.5,259.5 428.5,259.5C 428.5,262.833 428.5,266.167 428.5,269.5C 428.34,271.199 428.506,272.866 429,274.5C 432.257,271.572 436.091,270.738 440.5,272C 443.102,272.935 444.602,274.768 445,277.5C 445.184,285.079 445.684,292.579 446.5,300C 442.179,300.499 437.846,300.666 433.5,300.5C 434.462,293.588 434.795,286.588 434.5,279.5C 432.585,279.216 430.919,279.549 429.5,280.5C 428.17,286.803 428.17,293.137 429.5,299.5C 425.217,300.492 420.884,300.826 416.5,300.5C 417.644,288.909 417.811,277.243 417,265.5C 416.5,265 416,264.5 415.5,264C 419.042,262.725 422.375,261.225 425.5,259.5 Z"/></g>
<g><path style="opacity:0.995" fill="#188e50" d="M 429.5,280.5 C 430.919,279.549 432.585,279.216 434.5,279.5C 434.795,286.588 434.462,293.588 433.5,300.5C 432.448,300.649 431.448,300.483 430.5,300C 431.147,296.751 431.481,293.418 431.5,290C 431.485,286.424 430.818,283.258 429.5,280.5 Z"/></g>
<g><path style="opacity:1" fill="#ea8b4f" d="M 258.5,212.5 C 251.996,214.831 247.162,219.164 244,225.5C 242.476,231.785 244.642,236.118 250.5,238.5C 245.465,238.449 242.132,236.115 240.5,231.5C 242.175,229.544 241.842,228.211 239.5,227.5C 243.176,219.16 249.509,214.16 258.5,212.5 Z"/></g>
<g><path style="opacity:1" fill="#948664" d="M 334.5,209.5 C 335.167,211.833 335.833,214.167 336.5,216.5C 336.5,218.5 336.5,220.5 336.5,222.5C 335.517,226.298 335.183,230.298 335.5,234.5C 334.507,226.35 334.174,218.017 334.5,209.5 Z"/></g>
<g><path style="opacity:1" fill="#41446d" d="M 277.5,215.5 C 277.833,215.5 278.167,215.5 278.5,215.5C 278.267,220.895 278.6,226.228 279.5,231.5C 278.566,232.568 278.232,233.901 278.5,235.5C 277.509,229.021 277.176,222.354 277.5,215.5 Z"/></g>
<g><path style="opacity:1" fill="#ef8c4d" d="M 278.5,205.5 C 279.5,205.5 280.5,205.5 281.5,205.5C 281.334,213.84 281.5,222.173 282,230.5C 283.872,236.849 288.039,239.182 294.5,237.5C 287.689,240.177 282.689,238.177 279.5,231.5C 278.6,226.228 278.267,220.895 278.5,215.5C 278.5,212.167 278.5,208.833 278.5,205.5 Z"/></g>
<g><path style="opacity:1" fill="#0d1976" d="M 294.5,205.5 C 295.833,205.5 297.167,205.5 298.5,205.5C 299.14,215.558 298.473,225.225 296.5,234.5C 295.732,233.737 295.232,232.737 295,231.5C 294.5,222.84 294.334,214.173 294.5,205.5 Z"/></g>
<g><path style="opacity:1" fill="#e78c52" d="M 401.5,202.5 C 398.813,202.336 396.146,202.503 393.5,203C 391.667,204.833 389.833,206.667 388,208.5C 387.517,207.552 387.351,206.552 387.5,205.5C 391.618,201.604 396.285,200.604 401.5,202.5 Z"/></g>
<g><path style="opacity:1" fill="#f7934d" d="M 372.5,202.5 C 372.783,203.289 373.283,203.956 374,204.5C 374.667,214.5 374.667,224.5 374,234.5C 373.487,235.527 372.987,236.527 372.5,237.5C 371.448,237.649 370.448,237.483 369.5,237C 371.498,234.561 371.831,232.061 370.5,229.5C 370.5,228.5 370.5,227.5 370.5,226.5C 371.655,219.345 371.822,212.012 371,204.5C 369.164,202.869 369.664,202.202 372.5,202.5 Z"/></g>
<g><path style="opacity:1" fill="#e88a50" d="M 220.5,202.5 C 211.639,207.564 208.139,215.231 210,225.5C 214.1,234.804 221.266,238.804 231.5,237.5C 214.464,240.213 206.297,232.88 207,215.5C 208.801,208.197 213.301,203.863 220.5,202.5 Z"/></g>
<g><path style="opacity:1" fill="#f08e4f" d="M 348.5,202.5 C 339.148,210.015 336.982,219.348 342,230.5C 344.396,233.067 346.896,235.4 349.5,237.5C 341.932,235.268 337.599,230.268 336.5,222.5C 336.5,220.5 336.5,218.5 336.5,216.5C 337.72,209.362 341.72,204.696 348.5,202.5 Z"/></g>
<g><path style="opacity:1" fill="#e68752" d="M 252.5,202.5 C 250.261,203.542 248.095,204.875 246,206.5C 245.278,209.261 245.445,211.927 246.5,214.5C 245.178,214.67 244.011,214.337 243,213.5C 241.88,206.419 245.046,202.752 252.5,202.5 Z"/></g>
<g><path style="opacity:1" fill="#dc8b55" d="M 329.5,202.5 C 323.376,201.231 318.709,203.231 315.5,208.5C 314.614,207.675 314.281,206.675 314.5,205.5C 319.042,201.67 324.042,200.67 329.5,202.5 Z"/></g>
<g><path style="opacity:1" fill="#fcda59" d="M 372.5,202.5 C 377.179,202.334 381.845,202.501 386.5,203C 387.252,203.671 387.586,204.504 387.5,205.5C 387.351,206.552 387.517,207.552 388,208.5C 389.833,206.667 391.667,204.833 393.5,203C 396.146,202.503 398.813,202.336 401.5,202.5C 403.484,202.484 404.484,203.484 404.5,205.5C 402.978,208.709 401.311,211.876 399.5,215C 398.065,214.689 396.732,214.855 395.5,215.5C 394.126,214.289 392.626,213.289 391,212.5C 389.739,212.759 388.739,213.426 388,214.5C 387.269,222.202 387.436,229.869 388.5,237.5C 383.167,237.5 377.833,237.5 372.5,237.5C 372.987,236.527 373.487,235.527 374,234.5C 374.667,224.5 374.667,214.5 374,204.5C 373.283,203.956 372.783,203.289 372.5,202.5 Z"/></g>
<g><path style="opacity:1" fill="#f8d659" d="M 370.5,226.5 C 370.5,227.5 370.5,228.5 370.5,229.5C 369.308,234.12 366.308,236.953 361.5,238C 357.413,238.762 353.413,238.596 349.5,237.5C 346.896,235.4 344.396,233.067 342,230.5C 336.982,219.348 339.148,210.015 348.5,202.5C 355.765,200.293 362.265,201.626 368,206.5C 370.969,211.013 371.136,215.513 368.5,220C 362.549,221.032 356.549,221.865 350.5,222.5C 352.607,225.061 355.274,226.894 358.5,228C 362.982,228.618 366.982,228.118 370.5,226.5 Z"/></g>
<g><path style="opacity:1" fill="#f18e4c" d="M 351.5,207.5 C 357.023,208.184 359.856,211.184 360,216.5C 358.89,218.037 357.39,218.703 355.5,218.5C 357.248,216.84 357.748,214.84 357,212.5C 355.27,210.598 353.437,208.931 351.5,207.5 Z"/></g>
<g><path style="opacity:1" fill="#121976" d="M 351.5,207.5 C 353.437,208.931 355.27,210.598 357,212.5C 357.748,214.84 357.248,216.84 355.5,218.5C 348.226,220.37 344.726,217.703 345,210.5C 346.509,208.081 348.675,207.081 351.5,207.5 Z"/></g>
<g><path style="opacity:1" fill="#e98b52" d="M 292.5,192.5 C 288.751,195.888 284.751,199.055 280.5,202C 279.552,202.483 278.552,202.649 277.5,202.5C 277.5,203.5 277.5,204.5 277.5,205.5C 276.5,205.5 275.5,205.5 274.5,205.5C 274.281,204.325 274.614,203.325 275.5,202.5C 280.254,199.913 284.587,196.746 288.5,193C 289.793,192.51 291.127,192.343 292.5,192.5 Z"/></g>
<g><path style="opacity:1" fill="#fad859" d="M 277.5,215.5 C 277.176,222.354 277.509,229.021 278.5,235.5C 278.611,236.117 278.944,236.617 279.5,237C 273.833,237.667 268.167,237.667 262.5,237C 261.975,236.308 261.308,235.808 260.5,235.5C 257.639,237.98 254.306,238.98 250.5,238.5C 244.642,236.118 242.476,231.785 244,225.5C 247.162,219.164 251.996,214.831 258.5,212.5C 258.833,212.5 259.167,212.5 259.5,212.5C 263.533,212.309 265.033,210.309 264,206.5C 261.984,204.392 259.817,204.058 257.5,205.5C 254.334,207.834 251.667,210.667 249.5,214C 248.552,214.483 247.552,214.649 246.5,214.5C 245.445,211.927 245.278,209.261 246,206.5C 248.095,204.875 250.261,203.542 252.5,202.5C 261.94,199.492 269.774,201.826 276,209.5C 277.128,211.345 277.628,213.345 277.5,215.5 Z"/></g>
<g><path style="opacity:1" fill="#202075" d="M 261.5,215.5 C 261.999,221.058 261.333,226.392 259.5,231.5C 258.504,231.586 257.671,231.252 257,230.5C 254.069,223.977 255.569,218.977 261.5,215.5 Z"/></g>
<g><path style="opacity:1" fill="#f78f4c" d="M 261.5,215.5 C 262.5,215.5 263.5,215.5 264.5,215.5C 264.666,219.846 264.499,224.179 264,228.5C 263.411,230.863 261.911,231.863 259.5,231.5C 261.333,226.392 261.999,221.058 261.5,215.5 Z"/></g>
<g><path style="opacity:1" fill="#ee904d" d="M 257.5,205.5 C 259.817,204.058 261.984,204.392 264,206.5C 265.033,210.309 263.533,212.309 259.5,212.5C 262.463,209.058 261.796,206.725 257.5,205.5 Z"/></g>
<g><path style="opacity:1" fill="#f9d759" d="M 239.5,227.5 C 241.842,228.211 242.175,229.544 240.5,231.5C 238.565,235.103 235.565,237.103 231.5,237.5C 221.266,238.804 214.1,234.804 210,225.5C 208.139,215.231 211.639,207.564 220.5,202.5C 231.563,199.528 238.563,203.528 241.5,214.5C 241.55,217.574 240.217,219.741 237.5,221C 231.804,221.17 226.138,221.67 220.5,222.5C 225.212,228.378 230.879,229.712 237.5,226.5C 238.183,226.863 238.85,227.196 239.5,227.5 Z"/></g>
<g><path style="opacity:1" fill="#e68a4e" d="M 221.5,207.5 C 228.388,207.703 231.055,211.036 229.5,217.5C 228.264,218.246 226.93,218.579 225.5,218.5C 228.485,213.443 227.152,209.776 221.5,207.5 Z"/></g>
<g><path style="opacity:1" fill="#0c1876" d="M 221.5,207.5 C 227.152,209.776 228.485,213.443 225.5,218.5C 217.563,220.394 214.396,217.394 216,209.5C 217.584,208.139 219.418,207.472 221.5,207.5 Z"/></g>
<g><path style="opacity:0.996" fill="#0c1979" d="M 35.5,197.5 C 43.7363,223.212 49.7363,249.546 53.5,276.5C 46.8736,271.708 41.0403,266.041 36,259.5C 21.0495,238.841 20.8828,218.174 35.5,197.5 Z"/></g>
<g><path style="opacity:1" fill="#f3924f" d="M 314.5,187.5 C 308.673,187.914 303.34,189.748 298.5,193C 299.025,193.692 299.692,194.192 300.5,194.5C 301.666,207.821 301.833,221.154 301,234.5C 300.487,235.527 299.987,236.527 299.5,237.5C 298.5,237.5 297.5,237.5 296.5,237.5C 297.833,236.5 297.833,235.5 296.5,234.5C 298.473,225.225 299.14,215.558 298.5,205.5C 297.167,205.5 295.833,205.5 294.5,205.5C 296.219,204.978 297.552,203.978 298.5,202.5C 299.186,198.713 298.186,195.546 295.5,193C 301.319,188.551 307.652,186.717 314.5,187.5 Z"/></g>
<g><path style="opacity:1" fill="#fad959" d="M 292.5,192.5 C 294.402,195.337 295.069,198.671 294.5,202.5C 295.833,202.5 297.167,202.5 298.5,202.5C 297.552,203.978 296.219,204.978 294.5,205.5C 294.334,214.173 294.5,222.84 295,231.5C 295.232,232.737 295.732,233.737 296.5,234.5C 297.833,235.5 297.833,236.5 296.5,237.5C 295.833,237.5 295.167,237.5 294.5,237.5C 288.039,239.182 283.872,236.849 282,230.5C 281.5,222.173 281.334,213.84 281.5,205.5C 280.5,205.5 279.5,205.5 278.5,205.5C 278.167,205.5 277.833,205.5 277.5,205.5C 277.5,204.5 277.5,203.5 277.5,202.5C 278.552,202.649 279.552,202.483 280.5,202C 284.751,199.055 288.751,195.888 292.5,192.5 Z"/></g>
<g><path style="opacity:1" fill="#fedc59" d="M 314.5,187.5 C 314.5,193.5 314.5,199.5 314.5,205.5C 314.281,206.675 314.614,207.675 315.5,208.5C 318.709,203.231 323.376,201.231 329.5,202.5C 332.858,203.527 334.525,205.86 334.5,209.5C 334.174,218.017 334.507,226.35 335.5,234.5C 335.414,235.496 335.748,236.329 336.5,237C 331.177,237.499 325.844,237.666 320.5,237.5C 321.634,229.245 321.801,220.912 321,212.5C 319.989,211.663 318.822,211.33 317.5,211.5C 316.21,212.058 315.377,213.058 315,214.5C 314.333,221.167 314.333,227.833 315,234.5C 315.374,235.416 315.874,236.25 316.5,237C 310.843,237.499 305.176,237.666 299.5,237.5C 299.987,236.527 300.487,235.527 301,234.5C 301.833,221.154 301.666,207.821 300.5,194.5C 299.692,194.192 299.025,193.692 298.5,193C 303.34,189.748 308.673,187.914 314.5,187.5 Z"/></g>
<g><path style="opacity:1" fill="#e9864f" d="M 317.5,211.5 C 318.822,211.33 319.989,211.663 321,212.5C 321.801,220.912 321.634,229.245 320.5,237.5C 319.448,237.649 318.448,237.483 317.5,237C 318.819,228.5 318.819,220 317.5,211.5 Z"/></g>
<g><path style="opacity:1" fill="#171c73" d="M 210.5,170.5 C 211.391,171.261 212.058,172.261 212.5,173.5C 197.953,212.688 187.953,253.021 182.5,294.5C 181.778,294.082 181.278,293.416 181,292.5C 180.333,288.833 180.333,285.167 181,281.5C 186.773,249.745 194.106,218.411 203,187.5C 204.455,181.274 206.955,175.608 210.5,170.5 Z"/></g>
<g><path style="opacity:1" fill="#fddc59" d="M 25.5,165.5 C 42.5,165.5 59.5,165.5 76.5,165.5C 77.675,165.281 78.675,165.614 79.5,166.5C 77.8062,168.554 76.6395,170.888 76,173.5C 77.3364,203.186 82.6697,232.186 92,260.5C 93.4442,264.411 95.6109,267.744 98.5,270.5C 101.317,271.837 103.817,271.17 106,268.5C 107.725,265.326 109.058,261.993 110,258.5C 115.579,230.312 112.912,202.979 102,176.5C 100.326,172.476 98.159,168.809 95.5,165.5C 113.503,165.333 131.503,165.5 149.5,166C 146.118,171.147 144.784,176.814 145.5,183C 147.784,204.424 151.618,225.591 157,246.5C 159.078,253.734 161.744,260.734 165,267.5C 166.371,269.041 167.871,270.375 169.5,271.5C 173.597,271.531 176.097,269.531 177,265.5C 180.27,255.182 180.27,244.848 177,234.5C 171.47,220.244 166.137,205.911 161,191.5C 159.761,185.539 159.427,179.539 160,173.5C 161.305,170.039 163.471,167.372 166.5,165.5C 182.17,165.333 197.837,165.5 213.5,166C 211.859,167.129 210.859,168.629 210.5,170.5C 206.955,175.608 204.455,181.274 203,187.5C 194.106,218.411 186.773,249.745 181,281.5C 180.333,285.167 180.333,288.833 181,292.5C 181.278,293.416 181.778,294.082 182.5,294.5C 182.414,295.496 182.748,296.329 183.5,297C 164.17,297.5 144.836,297.667 125.5,297.5C 128.333,292.544 129.167,287.211 128,281.5C 125.59,268.116 122.923,254.783 120,241.5C 118.856,243.709 118.023,246.043 117.5,248.5C 115.862,258.859 114.028,269.192 112,279.5C 110.988,285.35 111.488,291.016 113.5,296.5C 105.862,297.497 98.1955,297.831 90.5,297.5C 78.8333,297.5 67.1667,297.5 55.5,297.5C 58.3322,292.581 59.1655,287.247 58,281.5C 52.2233,248.393 44.5567,215.727 35,183.5C 33.124,176.745 29.9573,170.745 25.5,165.5 Z"/></g>
<g><path style="opacity:1" fill="#ef8d4c" d="M 125.5,297.5 C 124.448,297.649 123.448,297.483 122.5,297C 124.64,294.385 125.64,291.385 125.5,288C 123.463,275.479 121.296,262.979 119,250.5C 118.722,249.584 118.222,248.918 117.5,248.5C 118.023,246.043 118.856,243.709 120,241.5C 122.923,254.783 125.59,268.116 128,281.5C 129.167,287.211 128.333,292.544 125.5,297.5 Z"/></g>
<g><path style="opacity:1" fill="#ef8d4d" d="M 166.5,165.5 C 163.471,167.372 161.305,170.039 160,173.5C 159.427,179.539 159.761,185.539 161,191.5C 166.137,205.911 171.47,220.244 177,234.5C 180.27,244.848 180.27,255.182 177,265.5C 176.097,269.531 173.597,271.531 169.5,271.5C 172.59,268.996 174.424,265.663 175,261.5C 177.066,248.075 175.4,235.075 170,222.5C 162.878,208.801 158.378,194.301 156.5,179C 155.926,171.428 159.259,166.928 166.5,165.5 Z"/></g>
<g><path style="opacity:1" fill="#f28e4c" d="M 95.5,165.5 C 98.159,168.809 100.326,172.476 102,176.5C 112.912,202.979 115.579,230.312 110,258.5C 109.058,261.993 107.725,265.326 106,268.5C 103.817,271.17 101.317,271.837 98.5,270.5C 100.39,270.703 101.89,270.037 103,268.5C 104.725,265.326 106.058,261.993 107,258.5C 112.512,230.337 109.846,203.004 99,176.5C 97.4597,172.581 95.2931,169.081 92.5,166C 93.448,165.517 94.448,165.351 95.5,165.5 Z"/></g>
</svg>