<?xml version="1.0" encoding="UTF-8"?>
<!DOCTYPE svg PUBLIC "-//W3C//DTD SVG 1.1//EN" "http://www.w3.org/Graphics/SVG/1.1/DTD/svg11.dtd">
<svg xmlns="http://www.w3.org/2000/svg" version="1.1" width="500px" height="500px" style="shape-rendering:geometricPrecision; text-rendering:geometricPrecision; image-rendering:optimizeQuality; fill-rule:evenodd; clip-rule:evenodd" xmlns:xlink="http://www.w3.org/1999/xlink">
<g><path style="opacity:0.998" fill="#15bfdd" d="M 428.5,269.5 C 428.5,266.167 428.5,262.833 428.5,259.5C 427.5,259.5 426.5,259.5 425.5,259.5C 420.653,260.26 415.986,261.594 411.5,263.5C 410.833,263.833 410.167,264.167 409.5,264.5C 408.883,264.389 408.383,264.056 408,263.5C 405.205,265.293 402.705,267.46 400.5,270C 399.255,270.791 397.922,271.291 396.5,271.5C 394.167,271.5 391.833,271.5 389.5,271.5C 387.315,271.704 385.315,272.37 383.5,273.5C 383.389,272.883 383.056,272.383 382.5,272C 378.973,271.192 375.64,271.359 372.5,272.5C 371.448,272.351 370.448,272.517 369.5,273C 370.814,275.605 370.814,278.105 369.5,280.5C 368.817,276.98 366.817,274.48 363.5,273C 358.934,271.691 354.267,271.191 349.5,271.5C 342.749,271.583 340.082,274.917 341.5,281.5C 342.5,281.5 343.5,281.5 344.5,281.5C 345.552,281.649 346.552,281.483 347.5,281C 348.998,278.336 350.998,276.17 353.5,274.5C 355.256,275.552 355.923,277.219 355.5,279.5C 347.906,280.617 342.573,284.617 339.5,291.5C 337.398,291.641 335.065,292.307 332.5,293.5C 329.054,292.611 326.054,290.944 323.5,288.5C 327.796,287.672 332.129,287.172 336.5,287C 340.869,284.51 341.703,281.01 339,276.5C 335.469,272.377 330.969,270.71 325.5,271.5C 316.941,272.559 312.274,277.393 311.5,286C 312.072,293.734 316.072,298.567 323.5,300.5C 329.097,302.368 334.097,301.368 338.5,297.5C 340.595,298.412 342.595,299.579 344.5,301C 347.367,301.801 350.034,301.634 352.5,300.5C 353.609,300.443 354.609,300.11 355.5,299.5C 357.117,300.038 358.784,300.371 360.5,300.5C 364.167,300.5 367.833,300.5 371.5,300.5C 371.833,300.5 372.167,300.5 372.5,300.5C 373.833,300.5 375.167,300.5 376.5,300.5C 344.787,313.013 311.787,320.513 277.5,323C 241.742,325.565 206.076,324.732 170.5,320.5C 153.473,317.391 136.473,313.558 119.5,309C 109.456,305.825 99.7891,301.992 90.5,297.5C 98.3516,297.825 106.018,297.492 113.5,296.5C 113.569,289.086 114.402,281.753 116,274.5C 116.869,271.237 118.203,270.904 120,273.5C 121.88,281.055 122.713,288.722 122.5,296.5C 123.209,297.404 124.209,297.737 125.5,297.5C 144.836,297.667 164.17,297.5 183.5,297C 182.944,296.617 182.611,296.117 182.5,295.5C 188.414,254.843 198.248,215.176 212,176.5C 212.602,173.779 212.435,171.113 211.5,168.5C 211.953,167.542 212.619,166.708 213.5,166C 196.662,165.172 179.995,165.338 163.5,166.5C 158.486,169.016 156.153,173.182 156.5,179C 158.537,194.247 163.037,208.747 170,222.5C 175.233,234.33 177.233,246.663 176,259.5C 175.016,263.98 173.183,267.98 170.5,271.5C 169.178,271.67 168.011,271.337 167,270.5C 164.746,266.993 162.746,263.327 161,259.5C 152.812,233.56 147.312,207.06 144.5,180C 144.489,174.696 146.156,170.029 149.5,166C 131.503,165.5 113.503,165.333 95.5,165.5C 94.448,165.351 93.448,165.517 92.5,166C 96.1451,169.453 98.6451,173.62 100,178.5C 103.61,188.997 106.61,199.664 109,210.5C 109.667,222.5 109.667,234.5 109,246.5C 108.454,255.717 105.621,264.05 100.5,271.5C 96.8467,270.011 94.3467,267.344 93,263.5C 82.4509,234.087 76.7842,203.754 76,172.5C 76.9143,170.336 78.081,168.336 79.5,166.5C 78.3112,165.571 76.9778,165.238 75.5,165.5C 87.25,159.584 99.25,154.251 111.5,149.5C 114.785,149.072 117.785,148.072 120.5,146.5C 139.141,141.84 157.808,137.84 176.5,134.5C 179.391,133.597 182.391,133.264 185.5,133.5C 243.47,127.453 300.47,132.286 356.5,148C 386.205,155.927 412.038,170.427 434,191.5C 456.165,219.198 454.331,245.198 428.5,269.5 Z"/></g>
<g><path style="opacity:0.039" fill="#fbfefe" d="M 176.5,134.5 C 157.808,137.84 139.141,141.84 120.5,146.5C 138.58,140.317 157.247,136.317 176.5,134.5 Z"/></g>
<g><path style="opacity:0.032" fill="#fbfeff" d="M 120.5,146.5 C 117.785,148.072 114.785,149.072 111.5,149.5C 113.956,147.132 116.956,146.132 120.5,146.5 Z"/></g>
<g><path style="opacity:1" fill="#fedd59" d="M 25.5,165.5 C 42.1667,165.5 58.8333,165.5 75.5,165.5C 76.9778,165.238 78.3112,165.571 79.5,166.5C 78.081,168.336 76.9143,170.336 76,172.5C 76.7842,203.754 82.4509,234.087 93,263.5C 94.3467,267.344 96.8467,270.011 100.5,271.5C 102.679,271.16 104.512,270.16 106,268.5C 109.56,261.26 111.56,253.593 112,245.5C 114.763,223.458 112.097,202.125 104,181.5C 101.933,175.695 99.0993,170.362 95.5,165.5C 113.503,165.333 131.503,165.5 149.5,166C 146.156,170.029 144.489,174.696 144.5,180C 147.312,207.06 152.812,233.56 161,259.5C 162.746,263.327 164.746,266.993 167,270.5C 168.011,271.337 169.178,271.67 170.5,271.5C 174.079,271.089 176.246,269.089 177,265.5C 180.27,255.182 180.27,244.848 177,234.5C 171.47,220.244 166.137,205.911 161,191.5C 159.761,185.539 159.427,179.539 160,173.5C 160.883,170.898 162.383,168.731 164.5,167C 164.272,166.601 163.938,166.435 163.5,166.5C 179.995,165.338 196.662,165.172 213.5,166C 212.619,166.708 211.953,167.542 211.5,168.5C 207.101,175.162 203.934,182.495 202,190.5C 192.96,220.366 185.96,250.7 181,281.5C 180.333,285.167 180.333,288.833 181,292.5C 181.232,293.737 181.732,294.737 182.5,295.5C 182.611,296.117 182.944,296.617 183.5,297C 164.17,297.5 144.836,297.667 125.5,297.5C 128.333,292.544 129.167,287.211 128,281.5C 125.59,268.116 122.923,254.783 120,241.5C 118.681,243.25 118.181,245.25 118.5,247.5C 115.448,258.919 112.948,270.586 111,282.5C 109.807,287.672 110.64,292.338 113.5,296.5C 106.018,297.492 98.3516,297.825 90.5,297.5C 78.8333,297.5 67.1667,297.5 55.5,297.5C 58.3322,292.581 59.1655,287.247 58,281.5C 52.2264,248.405 44.5597,215.738 35,183.5C 33.124,176.745 29.9573,170.745 25.5,165.5 Z"/></g>
<g><path style="opacity:1" fill="#2db9cf" d="M 211.5,168.5 C 212.435,171.113 212.602,173.779 212,176.5C 198.248,215.176 188.414,254.843 182.5,295.5C 181.732,294.737 181.232,293.737 181,292.5C 180.333,288.833 180.333,285.167 181,281.5C 185.96,250.7 192.96,220.366 202,190.5C 203.934,182.495 207.101,175.162 211.5,168.5 Z"/></g>
<g><path style="opacity:0.079" fill="#f6fbfc" d="M 170.5,320.5 C 206.076,324.732 241.742,325.565 277.5,323C 311.787,320.513 344.787,313.013 376.5,300.5C 379.518,300.665 382.518,300.498 385.5,300C 384.748,299.329 384.414,298.496 384.5,297.5C 389.167,295.5 393.833,293.5 398.5,291.5C 399.714,300.098 404.38,303.098 412.5,300.5C 413.167,300.5 413.833,300.5 414.5,300.5C 415.167,300.5 415.833,300.5 416.5,300.5C 420.884,300.826 425.217,300.492 429.5,299.5C 428.17,293.137 428.17,286.803 429.5,280.5C 430.818,283.258 431.485,286.424 431.5,290C 431.481,293.418 431.147,296.751 430.5,300C 431.448,300.483 432.448,300.649 433.5,300.5C 437.846,300.666 442.179,300.499 446.5,300C 445.683,292.246 445.183,284.412 445,276.5C 444.167,274.333 442.667,272.833 440.5,272C 436.091,270.738 432.257,271.572 429,274.5C 428.506,272.866 428.34,271.199 428.5,269.5C 454.331,245.198 456.165,219.198 434,191.5C 412.038,170.427 386.205,155.927 356.5,148C 300.47,132.286 243.47,127.453 185.5,133.5C 248.366,125.537 310.033,131.37 370.5,151C 397,159.827 419.833,174.327 439,194.5C 453.613,213.342 455.279,233.342 444,254.5C 440.167,259.5 436.333,264.5 432.5,269.5C 436.846,270.01 441.012,271.01 445,272.5C 446.214,281.825 447.38,291.159 448.5,300.5C 448.291,301.086 447.957,301.586 447.5,302C 432.167,302.667 416.833,302.667 401.5,302C 399.85,299.187 397.85,296.687 395.5,294.5C 391.42,296.417 387.753,298.917 384.5,302C 367.874,306.651 351.207,311.318 334.5,316C 286.597,326.012 238.264,328.679 189.5,324C 182.903,323.515 176.569,322.349 170.5,320.5 Z"/></g>
<g><path style="opacity:1" fill="#fcdc5a" d="M 314.5,205.5 C 314.281,206.675 314.614,207.675 315.5,208.5C 317.587,206.15 319.253,204.15 320.5,202.5C 325.999,200.284 330.499,201.618 334,206.5C 335.104,216.671 335.937,226.838 336.5,237C 331.177,237.499 325.844,237.666 320.5,237.5C 321.634,229.245 321.801,220.912 321,212.5C 320.329,211.748 319.496,211.414 318.5,211.5C 316.983,211.511 315.816,212.177 315,213.5C 314.2,221.216 314.367,228.883 315.5,236.5C 310.544,237.494 305.544,237.827 300.5,237.5C 301.782,223.187 301.782,208.854 300.5,194.5C 299.692,194.192 299.025,193.692 298.5,193C 299.571,192.148 300.571,191.315 301.5,190.5C 305.355,187.965 309.688,186.965 314.5,187.5C 314.5,193.5 314.5,199.5 314.5,205.5 Z"/></g>
<g><path style="opacity:1" fill="#fadc5b" d="M 291.5,192.5 C 292.5,192.5 293.5,192.5 294.5,192.5C 294.5,195.833 294.5,199.167 294.5,202.5C 295.833,202.5 297.167,202.5 298.5,202.5C 298.5,203.5 298.5,204.5 298.5,205.5C 297.167,205.5 295.833,205.5 294.5,205.5C 294.334,214.506 294.5,223.506 295,232.5C 295.377,233.942 296.21,234.942 297.5,235.5C 297.5,236.167 297.5,236.833 297.5,237.5C 293.816,238.728 290.15,238.728 286.5,237.5C 284.512,235.535 283.012,233.202 282,230.5C 281.667,222.167 281.333,213.833 281,205.5C 280.075,204.953 279.242,204.287 278.5,203.5C 283.171,200.156 287.505,196.49 291.5,192.5 Z"/></g>
<g><path style="opacity:0.06" fill="#f6f7f7" d="M 111.5,149.5 C 99.25,154.251 87.25,159.584 75.5,165.5C 58.8333,165.5 42.1667,165.5 25.5,165.5C 24.448,165.351 23.448,165.517 22.5,166C 29.6511,175.274 33.9844,185.774 35.5,197.5C 21.0786,217.614 20.9119,237.947 35,258.5C 40.3333,265.167 46.3333,271.167 53,276.5C 53.4643,275.906 53.631,275.239 53.5,274.5C 55.2204,280.267 55.7204,286.267 55,292.5C 54.7265,294.329 53.8932,295.829 52.5,297C 53.448,297.483 54.448,297.649 55.5,297.5C 67.1667,297.5 78.8333,297.5 90.5,297.5C 99.7891,301.992 109.456,305.825 119.5,309C 136.473,313.558 153.473,317.391 170.5,320.5C 142.726,317.307 115.726,310.807 89.5,301C 76.532,299.84 63.532,299.173 50.5,299C 49.6882,296.418 50.5215,294.251 53,292.5C 53.6959,288.095 53.3626,283.761 52,279.5C 45.0128,273.175 38.6794,266.175 33,258.5C 19.7242,238.966 19.3909,219.299 32,199.5C 31.585,187.983 28.2516,177.316 22,167.5C 21.3333,166.5 21.3333,165.5 22,164.5C 38.4613,164.196 54.9613,164.196 71.5,164.5C 79.6475,161.258 87.6475,157.758 95.5,154C 100.702,151.988 106.035,150.488 111.5,149.5 Z"/></g>
<g><path style="opacity:0.991" fill="#1ebedb" d="M 35.5,197.5 C 43.5197,222.58 49.5197,248.247 53.5,274.5C 53.631,275.239 53.4643,275.906 53,276.5C 46.3333,271.167 40.3333,265.167 35,258.5C 20.9119,237.947 21.0786,217.614 35.5,197.5 Z"/></g>
<g><path style="opacity:1" fill="#fada5b" d="M 241.5,226.5 C 241.5,227.833 241.5,229.167 241.5,230.5C 235.435,238.552 227.768,240.552 218.5,236.5C 208.76,228.875 206.927,219.541 213,208.5C 215.322,205.605 218.155,203.605 221.5,202.5C 232.154,199.828 238.82,203.828 241.5,214.5C 241.594,216.912 240.594,218.745 238.5,220C 232.549,221.032 226.549,221.865 220.5,222.5C 222.607,225.061 225.274,226.894 228.5,228C 233.239,228.526 237.572,228.026 241.5,226.5 Z"/></g>
<g><path style="opacity:1" fill="#fcdb5a" d="M 265.5,237.5 C 265.049,234.693 263.715,233.693 261.5,234.5C 257.337,238.264 252.67,239.264 247.5,237.5C 242.925,233.201 242.425,227.868 246,221.5C 248.772,218.217 251.939,215.55 255.5,213.5C 258.747,213.585 261.581,212.585 264,210.5C 264.842,206.181 263.342,204.514 259.5,205.5C 254.842,206.649 251.509,209.482 249.5,214C 248.207,214.49 246.873,214.657 245.5,214.5C 245.336,211.813 245.503,209.146 246,206.5C 247.518,205.837 248.685,204.837 249.5,203.5C 256.894,200.704 264.227,201.204 271.5,205C 273.378,206.543 274.878,208.376 276,210.5C 277.24,218.757 277.907,227.091 278,235.5C 278.5,236 279,236.5 279.5,237C 274.845,237.499 270.179,237.666 265.5,237.5 Z"/></g>
<g><path style="opacity:1" fill="#fadb5b" d="M 369.5,209.5 C 370.569,212.408 370.736,215.408 370,218.5C 368.591,219.781 367.091,220.781 365.5,221.5C 360.456,221.173 355.456,221.506 350.5,222.5C 355.038,228.298 360.538,229.632 367,226.5C 367.671,227.252 368.504,227.586 369.5,227.5C 370.808,229.638 370.475,231.638 368.5,233.5C 363.703,238.298 358.036,239.631 351.5,237.5C 341.11,232.899 337.276,224.899 340,213.5C 341.803,209.523 344.303,206.189 347.5,203.5C 356.55,199.376 363.883,201.376 369.5,209.5 Z"/></g>
<g><path style="opacity:1" fill="#fcdc5a" d="M 392.5,202.5 C 405.192,199.716 407.692,203.716 400,214.5C 398.855,215.684 397.688,215.684 396.5,214.5C 395.599,212.273 393.933,211.273 391.5,211.5C 389.589,211.574 388.422,212.574 388,214.5C 387.201,221.883 387.368,229.217 388.5,236.5C 383.208,237.495 377.875,237.828 372.5,237.5C 372.987,236.527 373.487,235.527 374,234.5C 374.667,224.5 374.667,214.5 374,204.5C 373.283,203.956 372.783,203.289 372.5,202.5C 377.179,202.334 381.845,202.501 386.5,203C 387.252,203.671 387.586,204.504 387.5,205.5C 387.351,206.552 387.517,207.552 388,208.5C 389.833,206.667 391.667,204.833 393.5,203C 393.272,202.601 392.938,202.435 392.5,202.5 Z"/></g>
<g><path style="opacity:1" fill="#f89350" d="M 249.5,203.5 C 248.685,204.837 247.518,205.837 246,206.5C 245.503,209.146 245.336,211.813 245.5,214.5C 244.235,213.486 243.569,211.986 243.5,210C 243.42,205.88 245.42,203.713 249.5,203.5 Z"/></g>
<g><path style="opacity:1" fill="#ee9856" d="M 320.5,202.5 C 319.253,204.15 317.587,206.15 315.5,208.5C 314.614,207.675 314.281,206.675 314.5,205.5C 316.216,203.975 318.216,202.975 320.5,202.5 Z"/></g>
<g><path style="opacity:1" fill="#f79650" d="M 392.5,202.5 C 392.938,202.435 393.272,202.601 393.5,203C 391.667,204.833 389.833,206.667 388,208.5C 387.517,207.552 387.351,206.552 387.5,205.5C 388.922,204.075 390.589,203.075 392.5,202.5 Z"/></g>
<g><path style="opacity:1" fill="#f59550" d="M 347.5,203.5 C 344.303,206.189 341.803,209.523 340,213.5C 337.276,224.899 341.11,232.899 351.5,237.5C 338.826,234.515 333.993,226.515 337,213.5C 339.075,208.59 342.575,205.257 347.5,203.5 Z"/></g>
<g><path style="opacity:1" fill="#fa954d" d="M 372.5,202.5 C 372.783,203.289 373.283,203.956 374,204.5C 374.667,214.5 374.667,224.5 374,234.5C 373.487,235.527 372.987,236.527 372.5,237.5C 371.167,237.5 370.5,236.833 370.5,235.5C 371.833,225.167 371.833,214.833 370.5,204.5C 369.34,202.797 370.007,202.131 372.5,202.5 Z"/></g>
<g><path style="opacity:1" fill="#fb924d" d="M 301.5,190.5 C 300.571,191.315 299.571,192.148 298.5,193C 299.025,193.692 299.692,194.192 300.5,194.5C 301.782,208.854 301.782,223.187 300.5,237.5C 299.5,237.5 298.5,237.5 297.5,237.5C 297.5,236.833 297.5,236.167 297.5,235.5C 298.494,225.681 298.827,215.681 298.5,205.5C 298.5,204.5 298.5,203.5 298.5,202.5C 298.664,199.813 298.497,197.146 298,194.5C 297.25,193.874 296.416,193.374 295.5,193C 297.158,191.337 299.158,190.504 301.5,190.5 Z"/></g>
<g><path style="opacity:1" fill="#f6994e" d="M 259.5,205.5 C 263.342,204.514 264.842,206.181 264,210.5C 261.581,212.585 258.747,213.585 255.5,213.5C 257.214,212.262 259.214,211.595 261.5,211.5C 261.946,208.99 261.28,206.99 259.5,205.5 Z"/></g>
<g><path style="opacity:1" fill="#f39351" d="M 291.5,192.5 C 287.505,196.49 283.171,200.156 278.5,203.5C 279.242,204.287 280.075,204.953 281,205.5C 281.333,213.833 281.667,222.167 282,230.5C 283.012,233.202 284.512,235.535 286.5,237.5C 282.183,236.68 279.683,234.013 279,229.5C 278.5,221.507 278.334,213.507 278.5,205.5C 277.167,205.5 275.833,205.5 274.5,205.5C 274.5,204.5 274.5,203.5 274.5,202.5C 279.928,200.607 284.594,197.441 288.5,193C 289.448,192.517 290.448,192.351 291.5,192.5 Z"/></g>
<g><path style="opacity:1" fill="#20bbd5" d="M 298.5,205.5 C 298.827,215.681 298.494,225.681 297.5,235.5C 296.21,234.942 295.377,233.942 295,232.5C 294.5,223.506 294.334,214.506 294.5,205.5C 295.833,205.5 297.167,205.5 298.5,205.5 Z"/></g>
<g><path style="opacity:1" fill="#f4924e" d="M 95.5,165.5 C 99.0993,170.362 101.933,175.695 104,181.5C 112.097,202.125 114.763,223.458 112,245.5C 111.56,253.593 109.56,261.26 106,268.5C 104.512,270.16 102.679,271.16 100.5,271.5C 105.621,264.05 108.454,255.717 109,246.5C 109.667,234.5 109.667,222.5 109,210.5C 106.61,199.664 103.61,188.997 100,178.5C 98.6451,173.62 96.1451,169.453 92.5,166C 93.448,165.517 94.448,165.351 95.5,165.5 Z"/></g>
<g><path style="opacity:1" fill="#29bad4" d="M 221.5,207.5 C 224.34,208.686 226.506,210.686 228,213.5C 228.613,215.495 228.113,217.162 226.5,218.5C 218.076,220.899 214.576,217.899 216,209.5C 217.444,207.845 219.278,207.178 221.5,207.5 Z"/></g>
<g><path style="opacity:1" fill="#20bbd6" d="M 351.5,207.5 C 353.437,208.931 355.27,210.598 357,212.5C 357.748,214.84 357.248,216.84 355.5,218.5C 347.728,220.219 344.228,217.219 345,209.5C 346.897,207.984 349.064,207.317 351.5,207.5 Z"/></g>
<g><path style="opacity:1" fill="#f3924d" d="M 163.5,166.5 C 163.938,166.435 164.272,166.601 164.5,167C 162.383,168.731 160.883,170.898 160,173.5C 159.427,179.539 159.761,185.539 161,191.5C 166.137,205.911 171.47,220.244 177,234.5C 180.27,244.848 180.27,255.182 177,265.5C 176.246,269.089 174.079,271.089 170.5,271.5C 173.183,267.98 175.016,263.98 176,259.5C 177.233,246.663 175.233,234.33 170,222.5C 163.037,208.747 158.537,194.247 156.5,179C 156.153,173.182 158.486,169.016 163.5,166.5 Z"/></g>
<g><path style="opacity:1" fill="#e78e4f" d="M 391.5,211.5 C 393.933,211.273 395.599,212.273 396.5,214.5C 394.315,215.087 392.648,214.087 391.5,211.5 Z"/></g>
<g><path style="opacity:1" fill="#f3904c" d="M 221.5,207.5 C 228.44,207.748 231.106,211.081 229.5,217.5C 228.583,218.127 227.583,218.461 226.5,218.5C 228.113,217.162 228.613,215.495 228,213.5C 226.506,210.686 224.34,208.686 221.5,207.5 Z"/></g>
<g><path style="opacity:1" fill="#f2924e" d="M 351.5,207.5 C 357.023,208.184 359.856,211.184 360,216.5C 358.89,218.037 357.39,218.703 355.5,218.5C 357.248,216.84 357.748,214.84 357,212.5C 355.27,210.598 353.437,208.931 351.5,207.5 Z"/></g>
<g><path style="opacity:1" fill="#eb9256" d="M 318.5,211.5 C 319.496,211.414 320.329,211.748 321,212.5C 321.801,220.912 321.634,229.245 320.5,237.5C 319.448,237.649 318.448,237.483 317.5,237C 318.483,228.585 318.817,220.085 318.5,211.5 Z"/></g>
<g><path style="opacity:1" fill="#f69450" d="M 255.5,213.5 C 251.939,215.55 248.772,218.217 246,221.5C 242.425,227.868 242.925,233.201 247.5,237.5C 243.41,236.998 241.41,234.665 241.5,230.5C 241.5,229.167 241.5,227.833 241.5,226.5C 243.575,219.426 248.242,215.093 255.5,213.5 Z"/></g>
<g><path style="opacity:1" fill="#fa914d" d="M 261.5,215.5 C 262.5,215.5 263.5,215.5 264.5,215.5C 264.666,219.846 264.499,224.179 264,228.5C 263.411,230.863 261.911,231.863 259.5,231.5C 259.783,230.711 260.283,230.044 261,229.5C 261.499,224.845 261.666,220.179 261.5,215.5 Z"/></g>
<g><path style="opacity:1" fill="#30bcd0" d="M 261.5,215.5 C 261.666,220.179 261.499,224.845 261,229.5C 260.283,230.044 259.783,230.711 259.5,231.5C 256.564,230.485 255.231,228.318 255.5,225C 255.65,220.508 257.65,217.341 261.5,215.5 Z"/></g>
<g><path style="opacity:1" fill="#5cb1ad" d="M 370.5,204.5 C 371.833,214.833 371.833,225.167 370.5,235.5C 370.5,234.167 369.833,233.5 368.5,233.5C 370.475,231.638 370.808,229.638 369.5,227.5C 370.537,225.262 370.703,222.929 370,220.5C 368.644,221.38 367.144,221.714 365.5,221.5C 367.091,220.781 368.591,219.781 370,218.5C 370.736,215.408 370.569,212.408 369.5,209.5C 370.451,208.081 370.784,206.415 370.5,204.5 Z"/></g>
<g><path style="opacity:1" fill="#f3924f" d="M 221.5,202.5 C 218.155,203.605 215.322,205.605 213,208.5C 206.927,219.541 208.76,228.875 218.5,236.5C 210.927,233.74 206.927,228.24 206.5,220C 206.736,209.939 211.736,204.106 221.5,202.5 Z"/></g>
<g><path style="opacity:1" fill="#1fb7d0" d="M 369.5,227.5 C 368.504,227.586 367.671,227.252 367,226.5C 360.538,229.632 355.038,228.298 350.5,222.5C 355.456,221.506 360.456,221.173 365.5,221.5C 367.144,221.714 368.644,221.38 370,220.5C 370.703,222.929 370.537,225.262 369.5,227.5 Z"/></g>
<g><path style="opacity:1" fill="#ee8d4c" d="M 265.5,237.5 C 263.381,237.532 262.048,236.532 261.5,234.5C 263.715,233.693 265.049,234.693 265.5,237.5 Z"/></g>
<g><path style="opacity:1" fill="#f6904d" d="M 25.5,165.5 C 29.9573,170.745 33.124,176.745 35,183.5C 44.5597,215.738 52.2264,248.405 58,281.5C 59.1655,287.247 58.3322,292.581 55.5,297.5C 54.448,297.649 53.448,297.483 52.5,297C 53.8932,295.829 54.7265,294.329 55,292.5C 55.7204,286.267 55.2204,280.267 53.5,274.5C 49.5197,248.247 43.5197,222.58 35.5,197.5C 33.9844,185.774 29.6511,175.274 22.5,166C 23.448,165.517 24.448,165.351 25.5,165.5 Z"/></g>
<g><path style="opacity:0.996" fill="#7bd657" d="M 425.5,259.5 C 426.5,259.5 427.5,259.5 428.5,259.5C 428.5,262.833 428.5,266.167 428.5,269.5C 428.34,271.199 428.506,272.866 429,274.5C 432.257,271.572 436.091,270.738 440.5,272C 442.667,272.833 444.167,274.333 445,276.5C 445.183,284.412 445.683,292.246 446.5,300C 442.179,300.499 437.846,300.666 433.5,300.5C 434.462,293.588 434.795,286.588 434.5,279.5C 432.585,279.216 430.919,279.549 429.5,280.5C 428.17,286.803 428.17,293.137 429.5,299.5C 425.217,300.492 420.884,300.826 416.5,300.5C 417.644,288.909 417.811,277.243 417,265.5C 416.5,265 416,264.5 415.5,264C 418.893,262.38 422.226,260.88 425.5,259.5 Z"/></g>
<g><path style="opacity:1" fill="#3cb7c9" d="M 118.5,247.5 C 122.163,262.31 124.33,277.31 125,292.5C 124.8,294.32 123.966,295.653 122.5,296.5C 122.713,288.722 121.88,281.055 120,273.5C 118.203,270.904 116.869,271.237 116,274.5C 114.402,281.753 113.569,289.086 113.5,296.5C 110.64,292.338 109.807,287.672 111,282.5C 112.948,270.586 115.448,258.919 118.5,247.5 Z"/></g>
<g><path style="opacity:1" fill="#fbdb5a" d="M 224.5,273.5 C 224.203,280.92 224.536,288.254 225.5,295.5C 225.833,296.167 226.167,296.833 226.5,297.5C 221.833,297.5 217.167,297.5 212.5,297.5C 212.088,293.663 210.754,292.996 208.5,295.5C 206.745,296.072 205.078,296.906 203.5,298C 200.304,298.805 197.304,298.638 194.5,297.5C 189.141,288.615 191.141,280.948 200.5,274.5C 202.848,272.903 205.514,271.903 208.5,271.5C 209.5,271.5 210.5,271.5 211.5,271.5C 212.21,268.115 211.044,265.781 208,264.5C 207.235,264.57 206.735,264.903 206.5,265.5C 202.161,266.995 198.827,269.829 196.5,274C 195.552,274.483 194.552,274.649 193.5,274.5C 192.807,270.247 193.807,266.581 196.5,263.5C 205.045,260.44 213.212,261.44 221,266.5C 222.705,268.577 223.872,270.91 224.5,273.5 Z"/></g>
<g><path style="opacity:1" fill="#fcdc5a" d="M 247.5,262.5 C 251.033,261.285 254.699,261.285 258.5,262.5C 259.234,263.708 259.567,265.041 259.5,266.5C 257.774,268.942 256.274,271.609 255,274.5C 253.855,275.684 252.688,275.684 251.5,274.5C 250.599,272.273 248.933,271.273 246.5,271.5C 244.589,271.574 243.422,272.574 243,274.5C 242.201,281.883 242.368,289.217 243.5,296.5C 238.208,297.495 232.875,297.828 227.5,297.5C 227.987,296.527 228.487,295.527 229,294.5C 229.667,284.5 229.667,274.5 229,264.5C 228.283,263.956 227.783,263.289 227.5,262.5C 232.179,262.334 236.845,262.501 241.5,263C 242.252,263.671 242.586,264.504 242.5,265.5C 242.351,266.552 242.517,267.552 243,268.5C 244.833,266.667 246.667,264.833 248.5,263C 248.272,262.601 247.938,262.435 247.5,262.5 Z"/></g>
<g><path style="opacity:1" fill="#fbdb5b" d="M 269.5,312.5 C 269.938,312.565 270.272,312.399 270.5,312C 269.484,311.481 268.818,310.647 268.5,309.5C 269.378,306.87 270.045,304.203 270.5,301.5C 271.15,301.196 271.817,300.863 272.5,300.5C 274.618,301.946 276.951,302.613 279.5,302.5C 282.272,302.405 284.272,301.071 285.5,298.5C 284.675,297.614 283.675,297.281 282.5,297.5C 279.5,297.5 276.5,297.5 273.5,297.5C 269.02,285.931 264.686,274.264 260.5,262.5C 266.167,262.5 271.833,262.5 277.5,262.5C 277.305,266.915 277.805,271.249 279,275.5C 280.466,279.029 281.466,282.695 282,286.5C 282.716,288.879 283.883,290.879 285.5,292.5C 286.302,293.885 286.969,293.718 287.5,292C 289.381,286.975 289.881,281.808 289,276.5C 286.876,273.032 284.043,270.365 280.5,268.5C 281.857,266.814 283.19,265.148 284.5,263.5C 294.581,259.066 298.747,262.399 297,273.5C 293.063,285.31 288.73,296.977 284,308.5C 280.014,313.318 275.181,314.651 269.5,312.5 Z"/></g>
<g><path style="opacity:1" fill="#f79650" d="M 247.5,262.5 C 247.938,262.435 248.272,262.601 248.5,263C 246.667,264.833 244.833,266.667 243,268.5C 242.517,267.552 242.351,266.552 242.5,265.5C 243.922,264.075 245.589,263.075 247.5,262.5 Z"/></g>
<g><path style="opacity:1" fill="#7bd659" d="M 411.5,263.5 C 411.194,266.385 411.527,269.052 412.5,271.5C 413.263,272.268 414.263,272.768 415.5,273C 414.263,273.232 413.263,273.732 412.5,274.5C 412.5,277.167 412.5,279.833 412.5,282.5C 412.334,287.511 412.501,292.511 413,297.5C 413.383,298.056 413.883,298.389 414.5,298.5C 414.5,299.167 414.5,299.833 414.5,300.5C 413.833,300.5 413.167,300.5 412.5,300.5C 406.993,301.895 403.493,299.895 402,294.5C 401.667,287.833 401.333,281.167 401,274.5C 400.5,274 400,273.5 399.5,273C 403.025,270.302 406.358,267.469 409.5,264.5C 410.167,264.167 410.833,263.833 411.5,263.5 Z"/></g>
<g><path style="opacity:1" fill="#f99850" d="M 196.5,263.5 C 193.807,266.581 192.807,270.247 193.5,274.5C 192.5,274.5 191.5,274.5 190.5,274.5C 190.336,271.813 190.503,269.146 191,266.5C 192.264,264.393 194.097,263.393 196.5,263.5 Z"/></g>
<g><path style="opacity:1" fill="#fa954d" d="M 227.5,262.5 C 227.783,263.289 228.283,263.956 229,264.5C 229.667,274.5 229.667,284.5 229,294.5C 228.487,295.527 227.987,296.527 227.5,297.5C 227.167,297.5 226.833,297.5 226.5,297.5C 226.167,296.833 225.833,296.167 225.5,295.5C 226.833,285.167 226.833,274.833 225.5,264.5C 224.34,262.797 225.007,262.131 227.5,262.5 Z"/></g>
<g><path style="opacity:1" fill="#28965d" d="M 425.5,259.5 C 422.226,260.88 418.893,262.38 415.5,264C 416,264.5 416.5,265 417,265.5C 417.811,277.243 417.644,288.909 416.5,300.5C 415.833,300.5 415.167,300.5 414.5,300.5C 414.5,299.833 414.5,299.167 414.5,298.5C 414.5,292.833 414.5,287.167 414.5,281.5C 415.01,278.612 414.344,276.279 412.5,274.5C 413.263,273.732 414.263,273.232 415.5,273C 414.263,272.768 413.263,272.268 412.5,271.5C 411.527,269.052 411.194,266.385 411.5,263.5C 415.986,261.594 420.653,260.26 425.5,259.5 Z"/></g>
<g><path style="opacity:1" fill="#f3914d" d="M 206.5,265.5 C 206.735,264.903 207.235,264.57 208,264.5C 211.044,265.781 212.21,268.115 211.5,271.5C 210.5,271.5 209.5,271.5 208.5,271.5C 208.946,268.99 208.28,266.99 206.5,265.5 Z"/></g>
<g><path style="opacity:1" fill="#0cbbd8" d="M 412.5,271.5 C 412.337,269.143 412.503,266.81 413,264.5C 415.145,267.184 414.978,269.517 412.5,271.5 Z"/></g>
<g><path style="opacity:1" fill="#f4914c" d="M 125.5,297.5 C 124.209,297.737 123.209,297.404 122.5,296.5C 123.966,295.653 124.8,294.32 125,292.5C 124.33,277.31 122.163,262.31 118.5,247.5C 118.181,245.25 118.681,243.25 120,241.5C 122.923,254.783 125.59,268.116 128,281.5C 129.167,287.211 128.333,292.544 125.5,297.5 Z"/></g>
<g><path style="opacity:1" fill="#64b4a7" d="M 225.5,264.5 C 226.833,274.833 226.833,285.167 225.5,295.5C 224.536,288.254 224.203,280.92 224.5,273.5C 225.477,270.713 225.81,267.713 225.5,264.5 Z"/></g>
<g><path style="opacity:1" fill="#e78e4f" d="M 246.5,271.5 C 248.933,271.273 250.599,272.273 251.5,274.5C 249.315,275.087 247.648,274.087 246.5,271.5 Z"/></g>
<g><path style="opacity:1" fill="#78d559" d="M 325.5,271.5 C 330.969,270.71 335.469,272.377 339,276.5C 341.703,281.01 340.869,284.51 336.5,287C 332.129,287.172 327.796,287.672 323.5,288.5C 326.054,290.944 329.054,292.611 332.5,293.5C 335.065,292.307 337.398,291.641 339.5,291.5C 340.808,293.638 340.475,295.638 338.5,297.5C 334.097,301.368 329.097,302.368 323.5,300.5C 314.367,294.922 312.2,287.255 317,277.5C 319.322,274.605 322.155,272.605 325.5,271.5 Z"/></g>
<g><path style="opacity:1" fill="#7bd758" d="M 349.5,271.5 C 354.267,271.191 358.934,271.691 363.5,273C 366.817,274.48 368.817,276.98 369.5,280.5C 369.334,286.176 369.501,291.843 370,297.5C 370.513,298.527 371.013,299.527 371.5,300.5C 367.833,300.5 364.167,300.5 360.5,300.5C 359.447,296.87 357.78,296.537 355.5,299.5C 354.609,300.11 353.609,300.443 352.5,300.5C 342.516,300.211 340.016,295.545 345,286.5C 349.003,282.717 353.669,280.05 359,278.5C 359.189,274.176 357.356,272.843 353.5,274.5C 350.998,276.17 348.998,278.336 347.5,281C 346.552,281.483 345.552,281.649 344.5,281.5C 343.771,276.804 345.438,273.47 349.5,271.5 Z"/></g>
<g><path style="opacity:1" fill="#1f9554" d="M 372.5,272.5 C 373.809,281.803 373.809,291.137 372.5,300.5C 372.167,300.5 371.833,300.5 371.5,300.5C 371.013,299.527 370.513,298.527 370,297.5C 369.501,291.843 369.334,286.176 369.5,280.5C 370.814,278.105 370.814,275.605 369.5,273C 370.448,272.517 371.448,272.351 372.5,272.5 Z"/></g>
<g><path style="opacity:0.996" fill="#7ad75b" d="M 383.5,273.5 C 383.987,274.473 384.487,275.473 385,276.5C 386.707,274.963 388.207,273.296 389.5,271.5C 391.833,271.5 394.167,271.5 396.5,271.5C 397.234,272.708 397.567,274.041 397.5,275.5C 396.534,278.469 394.867,280.802 392.5,282.5C 390.735,279.551 388.402,278.885 385.5,280.5C 384.511,285.975 384.178,291.642 384.5,297.5C 384.414,298.496 384.748,299.329 385.5,300C 382.518,300.498 379.518,300.665 376.5,300.5C 375.167,300.5 373.833,300.5 372.5,300.5C 373.809,291.137 373.809,281.803 372.5,272.5C 375.64,271.359 378.973,271.192 382.5,272C 383.056,272.383 383.389,272.883 383.5,273.5 Z"/></g>
<g><path style="opacity:1" fill="#179156" d="M 349.5,271.5 C 345.438,273.47 343.771,276.804 344.5,281.5C 343.5,281.5 342.5,281.5 341.5,281.5C 340.082,274.917 342.749,271.583 349.5,271.5 Z"/></g>
<g><path style="opacity:1" fill="#1c965b" d="M 389.5,271.5 C 388.207,273.296 386.707,274.963 385,276.5C 384.487,275.473 383.987,274.473 383.5,273.5C 385.315,272.37 387.315,271.704 389.5,271.5 Z"/></g>
<g><path style="opacity:1" fill="#f4914f" d="M 284.5,263.5 C 283.19,265.148 281.857,266.814 280.5,268.5C 284.043,270.365 286.876,273.032 289,276.5C 289.881,281.808 289.381,286.975 287.5,292C 286.969,293.718 286.302,293.885 285.5,292.5C 286.442,287.195 286.609,281.861 286,276.5C 283.778,273.333 281.278,270.5 278.5,268C 279.52,265.141 281.52,263.641 284.5,263.5 Z"/></g>
<g><path style="opacity:0.997" fill="#269457" d="M 409.5,264.5 C 406.358,267.469 403.025,270.302 399.5,273C 400,273.5 400.5,274 401,274.5C 401.333,281.167 401.667,287.833 402,294.5C 403.493,299.895 406.993,301.895 412.5,300.5C 404.38,303.098 399.714,300.098 398.5,291.5C 398.821,285.974 398.488,280.64 397.5,275.5C 397.567,274.041 397.234,272.708 396.5,271.5C 397.922,271.291 399.255,270.791 400.5,270C 402.705,267.46 405.205,265.293 408,263.5C 408.383,264.056 408.883,264.389 409.5,264.5 Z"/></g>
<g><path style="opacity:1" fill="#1bbedb" d="M 412.5,274.5 C 414.344,276.279 415.01,278.612 414.5,281.5C 413.833,281.833 413.167,282.167 412.5,282.5C 412.5,279.833 412.5,277.167 412.5,274.5 Z"/></g>
<g><path style="opacity:1" fill="#11bcd5" d="M 324.5,276.5 C 328.754,278.771 329.42,281.771 326.5,285.5C 320.501,285.998 318.334,283.331 320,277.5C 321.356,276.62 322.856,276.286 324.5,276.5 Z"/></g>
<g><path style="opacity:1" fill="#f8954f" d="M 200.5,274.5 C 191.141,280.948 189.141,288.615 194.5,297.5C 188.793,295.042 186.959,290.709 189,284.5C 191.147,279.184 194.98,275.851 200.5,274.5 Z"/></g>
<g><path style="opacity:1" fill="#25bbd6" d="M 208.5,275.5 C 208.733,280.895 208.4,286.228 207.5,291.5C 204.06,290.551 202.726,288.218 203.5,284.5C 202.878,280.064 204.545,277.064 208.5,275.5 Z"/></g>
<g><path style="opacity:1" fill="#1f9562" d="M 385.5,280.5 C 388.402,278.885 390.735,279.551 392.5,282.5C 390.071,282.116 387.737,281.449 385.5,280.5 Z"/></g>
<g><path style="opacity:0.995" fill="#18bfdc" d="M 397.5,275.5 C 398.488,280.64 398.821,285.974 398.5,291.5C 393.833,293.5 389.167,295.5 384.5,297.5C 384.178,291.642 384.511,285.975 385.5,280.5C 387.737,281.449 390.071,282.116 392.5,282.5C 394.867,280.802 396.534,278.469 397.5,275.5 Z"/></g>
<g><path style="opacity:1" fill="#f58f4e" d="M 208.5,275.5 C 209.5,275.5 210.5,275.5 211.5,275.5C 211.666,280.179 211.499,284.845 211,289.5C 210.184,290.823 209.017,291.489 207.5,291.5C 208.4,286.228 208.733,280.895 208.5,275.5 Z"/></g>
<g><path style="opacity:1" fill="#179155" d="M 324.5,276.5 C 330.072,276.718 332.072,279.384 330.5,284.5C 329.264,285.246 327.93,285.579 326.5,285.5C 329.42,281.771 328.754,278.771 324.5,276.5 Z"/></g>
<g><path style="opacity:0.995" fill="#188e50" d="M 429.5,280.5 C 430.919,279.549 432.585,279.216 434.5,279.5C 434.795,286.588 434.462,293.588 433.5,300.5C 432.448,300.649 431.448,300.483 430.5,300C 431.147,296.751 431.481,293.418 431.5,290C 431.485,286.424 430.818,283.258 429.5,280.5 Z"/></g>
<g><path style="opacity:1" fill="#f6f9f6" d="M 414.5,281.5 C 414.5,287.167 414.5,292.833 414.5,298.5C 413.883,298.389 413.383,298.056 413,297.5C 412.501,292.511 412.334,287.511 412.5,282.5C 413.167,282.167 413.833,281.833 414.5,281.5 Z"/></g>
<g><path style="opacity:1" fill="#f7924d" d="M 258.5,262.5 C 259.167,262.5 259.833,262.5 260.5,262.5C 264.686,274.264 269.02,285.931 273.5,297.5C 270.708,297.548 268.875,296.215 268,293.5C 265.625,284.324 262.791,275.324 259.5,266.5C 259.567,265.041 259.234,263.708 258.5,262.5 Z"/></g>
<g><path style="opacity:1" fill="#169050" d="M 355.5,283.5 C 356.568,282.566 357.901,282.232 359.5,282.5C 359.665,286.182 359.499,289.848 359,293.5C 357.38,295.632 355.546,295.965 353.5,294.5C 354.496,294.586 355.329,294.252 356,293.5C 356.808,289.973 356.641,286.64 355.5,283.5 Z"/></g>
<g><path style="opacity:1" fill="#12b7ca" d="M 355.5,283.5 C 356.641,286.64 356.808,289.973 356,293.5C 355.329,294.252 354.496,294.586 353.5,294.5C 351.763,290.3 352.43,286.634 355.5,283.5 Z"/></g>
<g><path style="opacity:1" fill="#7ad759" d="M 305.5,290.5 C 310.813,290.644 312.979,293.31 312,298.5C 311.292,299.381 310.458,300.047 309.5,300.5C 303.501,300.998 301.334,298.331 303,292.5C 303.995,291.934 304.828,291.267 305.5,290.5 Z"/></g>
<g><path style="opacity:1" fill="#1b945b" d="M 353.5,274.5 C 357.356,272.843 359.189,274.176 359,278.5C 353.669,280.05 349.003,282.717 345,286.5C 340.016,295.545 342.516,300.211 352.5,300.5C 350.034,301.634 347.367,301.801 344.5,301C 342.595,299.579 340.595,298.412 338.5,297.5C 340.475,295.638 340.808,293.638 339.5,291.5C 342.573,284.617 347.906,280.617 355.5,279.5C 355.923,277.219 355.256,275.552 353.5,274.5 Z"/></g>
<g><path style="opacity:1" fill="#f0914d" d="M 212.5,297.5 C 210.938,297.267 209.605,296.6 208.5,295.5C 210.754,292.996 212.088,293.663 212.5,297.5 Z"/></g>
<g><path style="opacity:1" fill="#148e52" d="M 325.5,271.5 C 322.155,272.605 319.322,274.605 317,277.5C 312.2,287.255 314.367,294.922 323.5,300.5C 316.072,298.567 312.072,293.734 311.5,286C 312.274,277.393 316.941,272.559 325.5,271.5 Z"/></g>
<g><path style="opacity:1" fill="#21985d" d="M 305.5,290.5 C 304.828,291.267 303.995,291.934 303,292.5C 301.334,298.331 303.501,300.998 309.5,300.5C 302.318,302.826 299.151,300.16 300,292.5C 301.444,290.845 303.278,290.178 305.5,290.5 Z"/></g>
<g><path style="opacity:1" fill="#1a9053" d="M 360.5,300.5 C 358.784,300.371 357.117,300.038 355.5,299.5C 357.78,296.537 359.447,296.87 360.5,300.5 Z"/></g>
<g><path style="opacity:1" fill="#f6954d" d="M 282.5,297.5 C 283.675,297.281 284.675,297.614 285.5,298.5C 284.272,301.071 282.272,302.405 279.5,302.5C 281.69,301.626 282.69,299.959 282.5,297.5 Z"/></g>
<g><path style="opacity:1" fill="#f19554" d="M 270.5,301.5 C 270.045,304.203 269.378,306.87 268.5,309.5C 268.818,310.647 269.484,311.481 270.5,312C 270.272,312.399 269.938,312.565 269.5,312.5C 267.433,312.468 266.1,311.468 265.5,309.5C 266.105,306.684 267.105,304.017 268.5,301.5C 269.257,300.227 269.923,300.227 270.5,301.5 Z"/></g>
</svg>
