<svg xmlns="http://www.w3.org/2000/svg" xmlns:xlink="http://www.w3.org/1999/xlink" version="1.1" style="shape-rendering:geometricPrecision; text-rendering:geometricPrecision; image-rendering:optimizeQuality; fill-rule:evenodd; clip-rule:evenodd" viewBox="167.84 158.5 202.61 186.92">
<g><path style="opacity:0.094" fill="#fffefc" d="M 305.5,158.5 C 307.5,158.833 309.5,159.167 311.5,159.5C 313.173,165.738 313.673,172.071 313,178.5C 311.336,183.038 308.169,184.538 303.5,183C 302.299,182.097 301.465,180.931 301,179.5C 300.333,173.833 300.333,168.167 301,162.5C 301.907,160.391 303.407,159.058 305.5,158.5 Z"/></g>
<g><path style="opacity:0.979" fill="#ffd027" d="M 304.5,160.5 C 307.547,159.855 309.713,160.855 311,163.5C 311.667,168.167 311.667,172.833 311,177.5C 308.822,181.065 306.156,181.399 303,178.5C 301.979,172.29 302.479,166.29 304.5,160.5 Z"/></g>
<g><path style="opacity:0.112" fill="#fffdf8" d="M 263.5,175.5 C 265.591,175.318 267.591,175.652 269.5,176.5C 272.117,179.407 274.951,182.073 278,184.5C 282.046,190.128 280.88,194.128 274.5,196.5C 269.301,193.812 264.801,190.145 261,185.5C 259.861,181.579 260.695,178.246 263.5,175.5 Z"/></g>
<g><path style="opacity:0.975" fill="#ffce1b" d="M 263.5,177.5 C 265.199,177.34 266.866,177.506 268.5,178C 271.667,181.167 274.833,184.333 278,187.5C 279.075,193.433 276.908,195.267 271.5,193C 267.291,189.806 264.291,185.806 262.5,181C 262.648,179.744 262.982,178.577 263.5,177.5 Z"/></g>
<g><path style="opacity:0.078" fill="#fffdf7" d="M 344.5,175.5 C 352.259,175.451 354.759,179.117 352,186.5C 348.23,190.945 343.897,194.611 339,197.5C 334.122,196.307 332.122,193.307 333,188.5C 336.67,183.998 340.503,179.665 344.5,175.5 Z"/></g>
<g><path style="opacity:0.964" fill="#ffce1d" d="M 345.5,177.5 C 350.675,176.507 352.509,178.507 351,183.5C 348.537,186.965 345.704,190.131 342.5,193C 337.092,195.267 334.925,193.433 336,187.5C 339.371,184.297 342.538,180.964 345.5,177.5 Z"/></g>
<g><path style="opacity:0.085" fill="#fffefb" d="M 350.5,216.5 C 356.176,216.334 361.843,216.501 367.5,217C 371.747,221.163 371.414,224.829 366.5,228C 360.109,228.758 353.776,228.424 347.5,227C 345.532,222.518 346.532,219.018 350.5,216.5 Z"/></g>
<g><path style="opacity:0.979" fill="#ffcf25" d="M 351.5,217.5 C 356.179,217.334 360.845,217.501 365.5,218C 369.065,220.178 369.399,222.844 366.5,226C 361.167,226.667 355.833,226.667 350.5,226C 347.665,222.695 347.999,219.862 351.5,217.5 Z"/></g>
<g><path style="opacity:0.067" fill="#fafcfc" d="M 301.5,188.5 C 328.08,188.687 340.913,202.02 340,228.5C 337.108,241.059 329.608,249.559 317.5,254C 330.926,262.526 335.093,274.359 330,289.5C 324.862,298.619 317.029,303.786 306.5,305C 299.782,305.795 293.116,305.628 286.5,304.5C 285.252,305.04 284.085,305.707 283,306.5C 280.517,314.98 275.35,317.48 267.5,314C 265.38,311.591 263.38,309.091 261.5,306.5C 257.516,305.23 253.516,305.23 249.5,306.5C 246.096,314.836 240.43,316.669 232.5,312C 231.692,309.912 230.692,307.912 229.5,306C 225.167,305.333 220.833,305.333 216.5,306C 215.076,308.101 213.742,310.267 212.5,312.5C 204.02,316.596 198.353,314.096 195.5,305C 173.282,300.715 164.449,287.549 169,265.5C 173.63,256.866 180.63,251.2 190,248.5C 191.357,223.143 204.69,209.81 230,208.5C 237.42,208.862 244.253,211.029 250.5,215C 255.164,216.345 259.831,216.678 264.5,216C 266.886,217.887 268.053,220.387 268,223.5C 269.388,224.554 270.888,224.72 272.5,224C 272.942,209.776 279.275,199.11 291.5,192C 294.942,190.816 298.275,189.65 301.5,188.5 Z"/></g>
<g><path style="opacity:0.961" fill="#fecd17" d="M 252.5,219.5 C 255.625,218.521 258.958,218.187 262.5,218.5C 265.077,219.69 265.91,221.69 265,224.5C 263.556,226.155 261.722,226.822 259.5,226.5C 257.527,223.861 255.194,221.527 252.5,219.5 Z"/></g>
<g><path style="opacity:0.456" fill="#fce484" d="M 262.5,218.5 C 258.958,218.187 255.625,218.521 252.5,219.5C 251.833,219.5 251.5,219.167 251.5,218.5C 255.167,217.167 258.833,217.167 262.5,218.5 Z"/></g>
<g><path style="opacity:0.997" fill="#c6dff6" d="M 251.5,218.5 C 251.5,219.167 251.833,219.5 252.5,219.5C 255.194,221.527 257.527,223.861 259.5,226.5C 259.47,227.497 259.97,228.164 261,228.5C 265.648,226.727 270.482,226.061 275.5,226.5C 291.407,228.741 300.74,237.741 303.5,253.5C 305.833,253.5 308.167,253.5 310.5,253.5C 329.51,260.868 334.677,273.868 326,292.5C 321.345,297.913 315.512,301.413 308.5,303C 299.506,303.5 290.506,303.666 281.5,303.5C 281.268,297.91 280.101,292.577 278,287.5C 273.148,292.173 269.314,297.506 266.5,303.5C 260.167,303.5 253.833,303.5 247.5,303.5C 248.006,297.535 247.006,291.868 244.5,286.5C 239.251,291.348 235.251,297.015 232.5,303.5C 226.167,303.5 219.833,303.5 213.5,303.5C 213.848,297.638 213.015,291.972 211,286.5C 203.682,292.139 199.849,299.472 199.5,308.5C 198.539,306.735 198.205,304.735 198.5,302.5C 178.246,301.412 168.746,290.746 170,270.5C 173.727,259.774 181.061,252.774 192,249.5C 192.321,230.201 201.487,217.368 219.5,211C 231.552,208.335 242.218,210.835 251.5,218.5 Z"/></g>
<g><path style="opacity:0.997" fill="#fecc08" d="M 310.5,253.5 C 308.167,253.5 305.833,253.5 303.5,253.5C 300.74,237.741 291.407,228.741 275.5,226.5C 275.101,205.234 285.434,193.234 306.5,190.5C 329.018,193.202 339.518,205.869 338,228.5C 334.025,242.646 324.858,250.979 310.5,253.5 Z"/></g>
<g><path style="opacity:0.102" fill="#fffdf5" d="M 337.5,248.5 C 339.924,249.03 342.257,249.864 344.5,251C 346.886,253.597 349.386,256.097 352,258.5C 354.74,268.097 351.573,270.93 342.5,267C 338.189,263.532 334.855,259.365 332.5,254.5C 332.81,251.202 334.476,249.202 337.5,248.5 Z"/></g>
<g><path style="opacity:0.975" fill="#ffce17" d="M 336.5,250.5 C 338.199,250.34 339.866,250.506 341.5,251C 344.667,254.167 347.833,257.333 351,260.5C 351.718,266.606 349.218,268.106 343.5,265C 339.617,262.131 336.95,258.465 335.5,254C 335.648,252.744 335.982,251.577 336.5,250.5 Z"/></g>
<g><path style="opacity:0.997" fill="#3d83c0" d="M 213.5,303.5 C 213.784,311.379 210.117,314.212 202.5,312C 201.29,310.961 200.29,309.794 199.5,308.5C 199.849,299.472 203.682,292.139 211,286.5C 213.015,291.972 213.848,297.638 213.5,303.5 Z"/></g>
<g><path style="opacity:0.998" fill="#3e84c0" d="M 247.5,303.5 C 246.418,312.524 241.918,314.857 234,310.5C 232.798,308.323 232.298,305.989 232.5,303.5C 235.251,297.015 239.251,291.348 244.5,286.5C 247.006,291.868 248.006,297.535 247.5,303.5 Z"/></g>
<g><path style="opacity:0.996" fill="#3f84c0" d="M 281.5,303.5 C 280.218,313.559 275.384,315.893 267,310.5C 266.503,308.19 266.337,305.857 266.5,303.5C 269.314,297.506 273.148,292.173 278,287.5C 280.101,292.577 281.268,297.91 281.5,303.5 Z"/></g>
<g><path style="opacity:0.071" fill="#f5f9fc" d="M 225.5,315.5 C 227.451,315.227 228.951,315.893 230,317.5C 233.143,325.885 233.143,334.219 230,342.5C 222.412,347.633 216.912,345.966 213.5,337.5C 213.978,333.602 215.145,329.935 217,326.5C 220.049,322.957 222.882,319.291 225.5,315.5 Z"/></g>
<g><path style="opacity:0.986" fill="#3f84c0" d="M 226.5,317.5 C 228.825,318.655 229.992,320.655 230,323.5C 230.667,328.5 230.667,333.5 230,338.5C 227.774,342.861 224.274,344.361 219.5,343C 214.71,338.689 214.21,333.855 218,328.5C 221.049,324.957 223.882,321.291 226.5,317.5 Z"/></g>
<g><path style="opacity:0.086" fill="#f4f8fb" d="M 259.5,315.5 C 260.822,315.33 261.989,315.663 263,316.5C 265.345,323.667 266.011,331 265,338.5C 262.777,344.25 258.61,346.416 252.5,345C 250.333,344.167 248.833,342.667 248,340.5C 247.333,337.5 247.333,334.5 248,331.5C 251.104,325.618 254.938,320.284 259.5,315.5 Z"/></g>
<g><path style="opacity:0.992" fill="#4084c1" d="M 260.5,317.5 C 264.765,324.178 265.598,331.511 263,339.5C 260.336,343.033 256.836,344.2 252.5,343C 249.735,340.005 248.902,336.505 250,332.5C 252.941,327.067 256.441,322.067 260.5,317.5 Z"/></g>
</svg>