<svg xmlns="http://www.w3.org/2000/svg" xmlns:xlink="http://www.w3.org/1999/xlink" version="1.1" style="shape-rendering:geometricPrecision; text-rendering:geometricPrecision; image-rendering:optimizeQuality; fill-rule:evenodd; clip-rule:evenodd" viewBox="147.95 147.5 203.35 203.9">
<g><path style="opacity:0.098" fill="#fdfefe" d="M 255.5,147.5 C 273.203,147.504 285.87,155.337 293.5,171C 319.583,166.789 338.083,176.622 349,200.5C 354.914,221.983 349.414,239.817 332.5,254C 327.151,257.177 321.484,259.51 315.5,261C 278.078,261.295 240.745,261.795 203.5,262.5C 192.193,261.709 180.86,261.209 169.5,261C 156.605,257.431 149.438,248.931 148,235.5C 147.278,220.788 153.778,210.621 167.5,205C 172.004,204.002 176.504,203.169 181,202.5C 179.451,182.55 188.618,171.55 208.5,169.5C 212.803,170.83 217.137,171.663 221.5,172C 228.04,156.932 239.373,148.766 255.5,147.5 Z"/></g>
<g><path style="opacity:0.997" fill="#e1e8ed" d="M 250.5,149.5 C 270.28,147.801 284.447,155.801 293,173.5C 316.892,168.791 334.558,177.124 346,198.5C 354.479,229.381 343.645,249.881 313.5,260C 265.833,260.667 218.167,260.667 170.5,260C 154.968,254.139 148.135,242.972 150,226.5C 155.461,209.772 166.795,203.105 184,206.5C 179.832,186.848 187.665,175.181 207.5,171.5C 212.952,171.762 217.952,173.429 222.5,176.5C 227.316,162.682 236.649,153.682 250.5,149.5 Z"/></g>
<g><path style="opacity:0.076" fill="#f4f9fd" d="M 276.5,299.5 C 275.85,299.804 275.183,300.137 274.5,300.5C 273.847,304.235 273.014,307.901 272,311.5C 269.408,312.982 267.075,312.648 265,310.5C 264.825,306.789 264.325,303.122 263.5,299.5C 260.787,301.382 257.953,303.049 255,304.5C 249.959,303.499 248.626,300.833 251,296.5C 253.469,294.348 256.302,292.848 259.5,292C 257.269,289.614 254.603,287.781 251.5,286.5C 249.26,284.039 248.927,281.373 250.5,278.5C 252.857,278.337 255.19,278.503 257.5,279C 259.309,281.238 261.642,282.405 264.5,282.5C 264.784,279.223 264.451,276.057 263.5,273C 266.688,268.675 269.855,268.508 273,272.5C 273.498,275.482 273.665,278.482 273.5,281.5C 276.749,280.749 279.915,279.749 283,278.5C 288.877,279.765 289.71,282.598 285.5,287C 282.638,287.93 280.305,289.597 278.5,292C 281.656,292.937 284.489,294.437 287,296.5C 288.825,301.986 286.992,304.486 281.5,304C 279.34,303.004 277.673,301.504 276.5,299.5 Z"/></g>
<g><path style="opacity:0.97" fill="#64b0ec" d="M 276.5,299.5 C 275.594,298.035 274.261,297.035 272.5,296.5C 271.672,300.796 271.172,305.129 271,309.5C 269.667,310.833 268.333,310.833 267,309.5C 266.828,305.129 266.328,300.796 265.5,296.5C 261.744,299.217 257.744,301.05 253.5,302C 251.993,301.163 251.493,299.996 252,298.5C 255.412,295.877 258.912,293.377 262.5,291C 259.167,289 255.833,287 252.5,285C 251.005,281.159 252.339,279.826 256.5,281C 259.912,282.455 263.079,284.288 266,286.5C 266.333,281.833 266.667,277.167 267,272.5C 268.333,271.167 269.667,271.167 271,272.5C 271.172,276.871 271.672,281.204 272.5,285.5C 276.524,283.315 280.524,281.482 284.5,280C 286.211,281.133 286.711,282.633 286,284.5C 282.5,286.667 279,288.833 275.5,291C 279.567,293.361 283.233,296.194 286.5,299.5C 285.788,301.046 284.622,302.046 283,302.5C 281.022,301.094 278.855,300.094 276.5,299.5 Z"/></g>
<g><path style="opacity:0.076" fill="#f7fbfe" d="M 211.5,264.5 C 213.262,264.357 214.929,264.691 216.5,265.5C 217.225,269.255 218.225,272.922 219.5,276.5C 222.882,273.948 226.548,272.948 230.5,273.5C 231.544,275.768 231.711,278.101 231,280.5C 228.084,282.041 225.251,283.707 222.5,285.5C 225.005,287.253 227.671,288.753 230.5,290C 232.984,292.284 233.151,294.784 231,297.5C 230.107,298.081 229.107,298.415 228,298.5C 224.846,297.84 222.013,296.506 219.5,294.5C 218.808,295.025 218.308,295.692 218,296.5C 217.667,299.5 217.333,302.5 217,305.5C 214.667,306.833 212.333,306.833 210,305.5C 209.182,301.716 208.182,298.05 207,294.5C 204.823,296.527 202.323,297.861 199.5,298.5C 195.192,298.14 193.692,295.807 195,291.5C 197.921,289.623 200.754,287.623 203.5,285.5C 200.833,283.833 198.167,282.167 195.5,280.5C 193.66,276.56 194.826,273.893 199,272.5C 201.922,273.755 204.589,275.422 207,277.5C 208.673,273.173 210.173,268.84 211.5,264.5 Z"/></g>
<g><path style="opacity:0.98" fill="#65b0ec" d="M 211.5,266.5 C 213.144,266.286 214.644,266.62 216,267.5C 216.333,271.833 216.667,276.167 217,280.5C 220.748,277.368 224.915,275.535 229.5,275C 230.86,276.938 230.527,278.604 228.5,280C 225.5,281.833 222.5,283.667 219.5,285.5C 222.368,287.532 225.368,289.365 228.5,291C 231.589,295.058 230.589,296.725 225.5,296C 222.995,294.247 220.329,292.747 217.5,291.5C 216.673,295.459 216.173,299.459 216,303.5C 214.333,304.833 212.667,304.833 211,303.5C 210.667,299.167 210.333,294.833 210,290.5C 206.638,293.015 202.971,295.015 199,296.5C 197.5,296.333 196.667,295.5 196.5,294C 199.356,290.647 202.689,287.814 206.5,285.5C 203.623,283.139 200.456,281.139 197,279.5C 195.746,275.889 196.912,274.389 200.5,275C 203.585,276.96 206.752,278.793 210,280.5C 210.223,275.75 210.723,271.084 211.5,266.5 Z"/></g>
<g><path style="opacity:0.09" fill="#f8fbfe" d="M 321.5,264.5 C 324.665,263.964 327.331,264.797 329.5,267C 328.131,270.3 328.464,273.467 330.5,276.5C 333.288,275.022 336.122,273.689 339,272.5C 342.297,274.179 343.297,276.846 342,280.5C 339.242,281.795 336.742,283.461 334.5,285.5C 337.208,287.611 340.041,289.611 343,291.5C 344.502,297.327 342.336,299.494 336.5,298C 334.182,296.007 331.516,294.841 328.5,294.5C 328.433,296.401 328.767,298.234 329.5,300C 328.815,306.7 325.648,308.2 320,304.5C 319.502,301.518 319.335,298.518 319.5,295.5C 316.978,295.128 314.978,295.961 313.5,298C 306.601,300.089 304.101,297.922 306,291.5C 308.959,289.611 311.792,287.611 314.5,285.5C 312.664,284.081 310.664,282.914 308.5,282C 304.669,278.345 305.002,275.178 309.5,272.5C 312.107,273.137 314.44,274.304 316.5,276C 317.944,276.781 319.277,276.614 320.5,275.5C 318.951,271.579 319.284,267.912 321.5,264.5 Z"/></g>
<g><path style="opacity:0.971" fill="#65b0ec" d="M 322.5,266.5 C 324.144,266.286 325.644,266.62 327,267.5C 327.333,271.833 327.667,276.167 328,280.5C 331.362,277.985 335.029,275.985 339,274.5C 342.369,276.69 342.202,278.856 338.5,281C 335.671,282.247 333.005,283.747 330.5,285.5C 333.5,287.333 336.5,289.167 339.5,291C 342.303,293.222 342.137,295.055 339,296.5C 335.439,294.97 331.939,293.303 328.5,291.5C 327.673,295.459 327.173,299.459 327,303.5C 325.333,304.833 323.667,304.833 322,303.5C 321.827,299.459 321.327,295.459 320.5,291.5C 317.061,293.303 313.561,294.97 310,296.5C 306.863,295.055 306.697,293.222 309.5,291C 312.5,289.167 315.5,287.333 318.5,285.5C 315.167,283.5 311.833,281.5 308.5,279.5C 306.735,275.986 307.735,274.486 311.5,275C 314.667,276.833 317.833,278.667 321,280.5C 321.223,275.75 321.723,271.084 322.5,266.5 Z"/></g>
<g><path style="opacity:0.06" fill="#f4f9fd" d="M 166.5,286.5 C 168.936,286.317 171.103,286.984 173,288.5C 171.297,299.861 174.13,301.695 181.5,294C 185.421,293.235 187.755,294.902 188.5,299C 188.138,300.225 187.638,301.391 187,302.5C 184.586,304.291 182.086,305.957 179.5,307.5C 183.472,309.472 186.472,312.472 188.5,316.5C 188.054,319.086 186.554,320.42 184,320.5C 180.652,319.391 177.485,318.224 174.5,317C 173.707,320.411 173.207,323.911 173,327.5C 170.534,328.788 168.034,328.788 165.5,327.5C 164.511,323.893 164.177,320.226 164.5,316.5C 161.178,317.826 157.845,319.16 154.5,320.5C 149.618,320.019 148.451,317.686 151,313.5C 153.921,311.623 156.754,309.623 159.5,307.5C 154.869,305.865 151.535,302.865 149.5,298.5C 150.903,294.746 153.57,293.579 157.5,295C 159.241,296.62 161.075,298.12 163,299.5C 163.905,295.063 165.072,290.73 166.5,286.5 Z"/></g>
<g><path style="opacity:0.974" fill="#63afec" d="M 167.5,288.5 C 168.822,288.33 169.989,288.663 171,289.5C 171.172,293.871 171.672,298.204 172.5,302.5C 175.935,300.367 179.435,298.367 183,296.5C 187.452,298.26 187.619,300.426 183.5,303C 180.671,304.247 178.005,305.747 175.5,307.5C 178.291,309.735 181.291,311.735 184.5,313.5C 185.452,315.045 185.785,316.712 185.5,318.5C 180.882,317.696 176.549,316.029 172.5,313.5C 171.672,317.796 171.172,322.129 171,326.5C 169.667,327.833 168.333,327.833 167,326.5C 166.667,321.833 166.333,317.167 166,312.5C 161.879,316.251 157.213,317.917 152,317.5C 151.316,316.216 151.483,315.049 152.5,314C 156.04,312.069 159.374,309.902 162.5,307.5C 159.995,305.747 157.329,304.247 154.5,303C 150.381,300.426 150.548,298.26 155,296.5C 158.361,298.684 161.861,300.684 165.5,302.5C 166.218,297.788 166.885,293.121 167.5,288.5 Z"/></g>
<g><path style="opacity:0.067" fill="#f7fbfe" d="M 294.5,308.5 C 296.722,308.178 298.556,308.845 300,310.5C 301.199,313.726 301.699,317.059 301.5,320.5C 305.112,319.947 308.612,318.947 312,317.5C 315.067,318.402 316.067,320.402 315,323.5C 312.713,326.312 309.879,328.312 306.5,329.5C 308.687,331.85 311.187,333.85 314,335.5C 316.561,341.186 314.727,343.353 308.5,342C 306.63,340.634 304.63,339.467 302.5,338.5C 301.676,341.785 301.176,345.118 301,348.5C 298.633,351.932 295.966,352.265 293,349.5C 292.825,345.789 292.325,342.122 291.5,338.5C 287.895,342.001 283.561,343.335 278.5,342.5C 278.67,341.178 278.337,340.011 277.5,339C 279.497,334.644 282.83,331.644 287.5,330C 284.416,328.531 281.583,326.698 279,324.5C 277.167,318.333 279.333,316.167 285.5,318C 287.336,319.419 289.336,320.586 291.5,321.5C 292.325,317.878 292.825,314.211 293,310.5C 293.717,309.956 294.217,309.289 294.5,308.5 Z"/></g>
<g><path style="opacity:0.686" fill="#a1cff3" d="M 294.5,312.5 C 294.826,316.884 294.492,321.217 293.5,325.5C 292.893,325.376 292.56,325.043 292.5,324.5C 293.167,320.5 293.833,316.5 294.5,312.5 Z"/></g>
<g><path style="opacity:0.975" fill="#62afec" d="M 294.5,347.5 C 294.826,343.116 294.492,338.783 293.5,334.5C 292.893,334.624 292.56,334.957 292.5,335.5C 289.194,337.489 285.861,339.489 282.5,341.5C 279.721,340.327 279.054,338.493 280.5,336C 284.165,334.503 287.498,332.503 290.5,330C 287.167,328 283.833,326 280.5,324C 279.005,320.159 280.339,318.826 284.5,320C 287.356,321.259 290.023,322.759 292.5,324.5C 292.56,325.043 292.893,325.376 293.5,325.5C 294.492,321.217 294.826,316.884 294.5,312.5C 295.585,310.418 297.085,310.084 299,311.5C 299.172,315.871 299.672,320.204 300.5,324.5C 304.315,321.424 308.648,319.757 313.5,319.5C 313.822,321.722 313.155,323.556 311.5,325C 308.339,326.413 305.339,328.08 302.5,330C 305.833,332 309.167,334 312.5,336C 313.99,338.2 313.657,340.034 311.5,341.5C 307.833,339.5 304.167,337.5 300.5,335.5C 299.672,339.796 299.172,344.129 299,348.5C 297.085,349.916 295.585,349.582 294.5,347.5 Z"/></g>
<g><path style="opacity:0.075" fill="#f9fbfe" d="M 227.5,311.5 C 228.205,314.228 228.872,317.061 229.5,320C 232.59,319.806 235.59,318.973 238.5,317.5C 242.014,318.497 243.181,320.83 242,324.5C 239.586,326.291 237.086,327.957 234.5,329.5C 236.687,331.85 239.187,333.85 242,335.5C 243.833,341.667 241.667,343.833 235.5,342C 233.664,340.581 231.664,339.414 229.5,338.5C 228.772,341.802 228.605,345.135 229,348.5C 226.504,352.002 223.671,352.335 220.5,349.5C 219.833,346.167 219.167,342.833 218.5,339.5C 214.874,341.971 210.874,342.971 206.5,342.5C 206.337,340.143 206.503,337.81 207,335.5C 209.813,333.85 212.313,331.85 214.5,329.5C 209.593,328.094 206.593,324.928 205.5,320C 206.529,318.302 208.029,317.468 210,317.5C 213.154,318.16 215.987,319.494 218.5,321.5C 220.815,319.395 221.149,316.895 219.5,314C 219.788,310.896 221.455,309.396 224.5,309.5C 226.03,309.64 227.03,310.307 227.5,311.5 Z"/></g>
<g><path style="opacity:0.968" fill="#67b1ed" d="M 227.5,311.5 C 227.174,315.884 227.508,320.217 228.5,324.5C 232.315,321.424 236.648,319.757 241.5,319.5C 241.714,321.144 241.38,322.644 240.5,324C 237.167,326 233.833,328 230.5,330C 233.833,332 237.167,334 240.5,336C 242.367,339.641 241.367,341.308 237.5,341C 234.5,339.167 231.5,337.333 228.5,335.5C 227.672,339.796 227.172,344.129 227,348.5C 225.612,349.554 224.112,349.72 222.5,349C 221.859,344.548 221.192,340.048 220.5,335.5C 217.5,337.333 214.5,339.167 211.5,341C 207.912,341.611 206.746,340.111 208,336.5C 211.5,334.333 215,332.167 218.5,330C 215.661,328.08 212.661,326.413 209.5,325C 206.687,322.464 206.854,320.297 210,318.5C 213.565,320.367 217.065,322.367 220.5,324.5C 221.328,320.204 221.828,315.871 222,311.5C 223.828,310.248 225.661,310.248 227.5,311.5 Z"/></g>
<g><path style="opacity:0.563" fill="#a1cff3" d="M 292.5,335.5 C 292.56,334.957 292.893,334.624 293.5,334.5C 294.492,338.783 294.826,343.116 294.5,347.5C 293.833,343.5 293.167,339.5 292.5,335.5 Z"/></g>
</svg>