<svg xmlns="http://www.w3.org/2000/svg" xmlns:xlink="http://www.w3.org/1999/xlink" version="1.1" style="shape-rendering:geometricPrecision; text-rendering:geometricPrecision; image-rendering:optimizeQuality; fill-rule:evenodd; clip-rule:evenodd" viewBox="157.63 186.19 201.93 107.18">
<g><path style="opacity:0.131" fill="#fafbfd" d="M 263.5,186.5 C 273.901,185.266 283.234,187.766 291.5,194C 293.494,196.827 295.828,199.327 298.5,201.5C 318.008,197.168 330.842,204.502 337,223.5C 354.412,226.651 361.745,236.984 359,254.5C 355.795,262.036 350.295,267.203 342.5,270C 336.167,270.333 329.833,270.667 323.5,271C 319.295,277.526 313.295,281.193 305.5,282C 288.153,282.324 270.819,282.991 253.5,284C 247.569,292.644 239.569,295.31 229.5,292C 226.167,290 223.5,287.333 221.5,284C 212.734,283.215 204.067,281.882 195.5,280C 191.313,277.971 187.98,274.971 185.5,271C 178.809,270.831 172.142,270.331 165.5,269.5C 163.842,265.473 165.008,262.473 169,260.5C 170.341,257.978 171.174,255.311 171.5,252.5C 167.452,252.351 163.452,251.851 159.5,251C 157.006,248.756 157.006,246.423 159.5,244C 168.45,242.82 177.45,242.153 186.5,242C 190.611,238.529 195.111,235.695 200,233.5C 201.793,227.532 203.46,221.532 205,215.5C 214.349,201.694 227.516,195.527 244.5,197C 249.764,191.372 256.097,187.872 263.5,186.5 Z"/></g>
<g><path style="opacity:0.998" fill="#3d83c0" d="M 161.5,249.5 C 158.833,248.167 158.833,246.833 161.5,245.5C 183.836,245.667 206.169,245.5 228.5,245C 236.41,242.345 238.577,237.178 235,229.5C 229.036,223.968 223.369,224.302 218,230.5C 217.667,232.5 217.333,234.5 217,236.5C 215.644,237.38 214.144,237.714 212.5,237.5C 213.664,222.578 221.33,217.744 235.5,223C 241.972,228.904 243.139,235.738 239,243.5C 237.127,245.709 234.96,247.542 232.5,249C 208.836,249.5 185.169,249.667 161.5,249.5 Z"/></g>
<g><path style="opacity:0.996" fill="#c3def5" d="M 244.5,200.5 C 252.253,203.573 258.586,208.573 263.5,215.5C 277.954,211.04 289.454,215.04 298,227.5C 300.006,230.536 300.84,233.869 300.5,237.5C 317.277,238.109 325.11,246.776 324,263.5C 323.598,264.872 323.098,266.205 322.5,267.5C 327.456,268.494 332.456,268.827 337.5,268.5C 332.349,269.327 327.016,269.827 321.5,270C 317.855,274.817 313.188,278.151 307.5,280C 288.836,280.5 270.17,280.667 251.5,280.5C 252.228,273.117 249.228,267.951 242.5,265C 217.836,264.5 193.169,264.333 168.5,264.5C 173.64,263.512 178.974,263.179 184.5,263.5C 184.5,262.167 184.5,260.833 184.5,259.5C 209.836,259.667 235.169,259.5 260.5,259C 268.064,255.994 270.897,250.494 269,242.5C 266.503,237.272 262.337,234.939 256.5,235.5C 247.738,236.079 244.071,240.579 245.5,249C 246.5,249.667 247.5,249.667 248.5,249C 250.79,238.73 255.957,236.896 264,243.5C 265.643,248.428 264.143,251.928 259.5,254C 234.502,254.5 209.502,254.667 184.5,254.5C 184.5,253.167 184.5,251.833 184.5,250.5C 176.648,250.825 168.982,250.492 161.5,249.5C 185.169,249.667 208.836,249.5 232.5,249C 234.96,247.542 237.127,245.709 239,243.5C 243.139,235.738 241.972,228.904 235.5,223C 221.33,217.744 213.664,222.578 212.5,237.5C 214.144,237.714 215.644,237.38 217,236.5C 217.333,234.5 217.667,232.5 218,230.5C 223.369,224.302 229.036,223.968 235,229.5C 238.577,237.178 236.41,242.345 228.5,245C 206.169,245.5 183.836,245.667 161.5,245.5C 170.342,244.833 179.342,244.167 188.5,243.5C 192.649,238.425 197.982,235.425 204.5,234.5C 203.819,216.008 212.486,204.508 230.5,200C 235.194,199.436 239.86,199.603 244.5,200.5 Z"/></g>
<g><path style="opacity:0.995" fill="#87a3bf" d="M 337.5,268.5 C 332.456,268.827 327.456,268.494 322.5,267.5C 323.098,266.205 323.598,264.872 324,263.5C 325.11,246.776 317.277,238.109 300.5,237.5C 300.84,233.869 300.006,230.536 298,227.5C 289.454,215.04 277.954,211.04 263.5,215.5C 258.586,208.573 252.253,203.573 244.5,200.5C 253.211,189.429 264.545,185.595 278.5,189C 286.243,191.408 292.243,196.074 296.5,203C 316.111,198.254 329.111,205.421 335.5,224.5C 351.42,227.239 358.92,236.572 358,252.5C 354.232,261.769 347.398,267.103 337.5,268.5 Z"/></g>
<g><path style="opacity:0.996" fill="#3c82c0" d="M 184.5,259.5 C 180.818,259.665 177.152,259.499 173.5,259C 172.167,257.667 172.167,256.333 173.5,255C 177.152,254.501 180.818,254.335 184.5,254.5C 209.502,254.667 234.502,254.5 259.5,254C 264.143,251.928 265.643,248.428 264,243.5C 255.957,236.896 250.79,238.73 248.5,249C 247.5,249.667 246.5,249.667 245.5,249C 244.071,240.579 247.738,236.079 256.5,235.5C 262.337,234.939 266.503,237.272 269,242.5C 270.897,250.494 268.064,255.994 260.5,259C 235.169,259.5 209.836,259.667 184.5,259.5 Z"/></g>
<g><path style="opacity:0.994" fill="#3d83c0" d="M 168.5,264.5 C 193.169,264.333 217.836,264.5 242.5,265C 249.228,267.951 252.228,273.117 251.5,280.5C 247.51,290.114 240.51,293.281 230.5,290C 227.147,287.495 224.814,284.329 223.5,280.5C 222.831,276.324 224.331,274.991 228,276.5C 228.198,278.382 228.698,280.048 229.5,281.5C 233.031,286.919 237.698,287.919 243.5,284.5C 244.425,283.643 245.092,282.643 245.5,281.5C 247.724,275.445 245.724,271.278 239.5,269C 215.836,268.5 192.169,268.333 168.5,268.5C 167.167,267.167 167.167,265.833 168.5,264.5 Z"/></g>
<g><path style="opacity:0.994" fill="#c3ddf5" d="M 168.5,268.5 C 192.169,268.333 215.836,268.5 239.5,269C 245.724,271.278 247.724,275.445 245.5,281.5C 240.167,280.167 234.833,280.167 229.5,281.5C 228.698,280.048 228.198,278.382 228,276.5C 224.331,274.991 222.831,276.324 223.5,280.5C 215.107,280.83 206.773,280.33 198.5,279C 194.252,276.757 190.586,273.757 187.5,270C 180.987,269.828 174.653,269.328 168.5,268.5 Z"/></g>
<g><path style="opacity:0.995" fill="#f8fafd" d="M 245.5,281.5 C 245.092,282.643 244.425,283.643 243.5,284.5C 237.698,287.919 233.031,286.919 229.5,281.5C 234.833,280.167 240.167,280.167 245.5,281.5 Z"/></g>
</svg>